<?xml version="1.0" encoding="utf-8"?>
<!-- Generator: Adobe Illustrator 27.0.0, SVG Export Plug-In . SVG Version: 6.00 Build 0)  -->
<svg version="1.1" id="Capa_1" xmlns="http://www.w3.org/2000/svg" xmlns:xlink="http://www.w3.org/1999/xlink" x="0px" y="0px"
	 viewBox="0 0 200 200" style="enable-background:new 0 0 200 200;" xml:space="preserve">
<style type="text/css">
	.st0{fill:#222221;}
	.st1{fill:#55565A;}
	.st2{fill:#4C428D;}
	.st3{fill:#26B1DC;}
	.st4{fill:#F5E134;}
</style>
<g>
	<path class="st0" d="M98.05,141.92c0.58-0.39,1.25-0.6,1.95-0.6c0.7,0,1.37,0.21,1.95,0.6l63.4,43.08V15H34.66v170L98.05,141.92z
		 M48.21,66.31c0.47-1.43,1.79-2.39,3.3-2.39h34.52L96.7,31.09c0.47-1.43,1.79-2.4,3.3-2.4c1.51,0,2.83,0.96,3.3,2.4l10.67,32.83
		h34.52c1.51,0,2.83,0.96,3.3,2.39c0.47,1.44-0.04,2.99-1.26,3.88L122.6,90.49l10.67,32.83c0.47,1.44-0.04,2.99-1.26,3.88
		c-1.18,0.86-2.88,0.87-4.08,0L100,106.91L72.07,127.2c-0.61,0.44-1.32,0.66-2.04,0.66c-0.71,0-1.43-0.22-2.04-0.66
		c-1.22-0.88-1.72-2.44-1.26-3.88L77.4,90.49L49.47,70.19C48.25,69.31,47.75,67.75,48.21,66.31z"/>
</g>
</svg>
