<?xml version="1.0" encoding="utf-8"?>
<!-- Generator: Adobe Illustrator 27.0.0, SVG Export Plug-In . SVG Version: 6.00 Build 0)  -->
<svg version="1.1" id="Capa_1" xmlns="http://www.w3.org/2000/svg" xmlns:xlink="http://www.w3.org/1999/xlink" x="0px" y="0px"
	 viewBox="0 0 200 200" style="enable-background:new 0 0 200 200;" xml:space="preserve">
<style type="text/css">
	.st0{fill:#222221;}
	.st1{fill:#55565A;}
	.st2{fill:#4C428D;}
	.st3{fill:#26B1DC;}
	.st4{fill:#F5E134;}
</style>
<g>
	<g>
		<path class="st0" d="M99.86,166.47c-9.19-0.02-16.71,7.57-16.69,16.86c0.02,9.22,7.59,16.69,16.89,16.67
			c9.27-0.02,16.77-7.5,16.81-16.77C116.91,173.97,109.32,166.49,99.86,166.47z"/>
		<path class="st0" d="M99.61,33.55c9.51,0.14,17.17-7.3,17.23-16.74c0.06-9.2-7.43-16.7-16.76-16.81
			c-9.24-0.1-16.75,7.28-16.91,16.64C83.01,25.71,90.5,33.42,99.61,33.55z"/>
		<path class="st0" d="M134.91,100.05c0.12-19.08-15.4-34.64-34.75-34.85C81,64.98,65.43,80.3,65.09,99.69
			c-0.33,18.81,15.22,34.8,34.1,35.07C118.91,135.05,134.79,119.62,134.91,100.05z"/>
		<path class="st0" d="M170.74,72.83c9.21,0.01,16.74-7.56,16.74-16.82c0-9.32-7.55-16.81-16.96-16.82
			c-9.16-0.01-16.63,7.61-16.61,16.94C153.94,65.4,161.41,72.82,170.74,72.83z"/>
		<path class="st0" d="M29.37,127.18c-8.95-0.23-16.72,7.39-16.86,16.51c-0.14,9.26,7.19,16.88,16.47,17.12
			c9.27,0.24,16.99-7.24,17.17-16.62C46.32,134.93,38.91,127.42,29.37,127.18z"/>
		<path class="st0" d="M170.53,127.18c-9.15-0.04-16.64,7.58-16.62,16.92c0.02,9.25,7.56,16.74,16.84,16.71
			c9.25-0.03,16.73-7.55,16.75-16.82C187.51,134.66,180,127.22,170.53,127.18z"/>
		<path class="st0" d="M29.37,72.83c9.22,0.02,16.71-7.52,16.73-16.82c0.01-9.33-7.53-16.82-16.95-16.82
			c-9.05,0-16.59,7.58-16.64,16.73C12.45,65.25,19.99,72.81,29.37,72.83z"/>
		<path class="st0" d="M24.68,121.19c2.25-0.13,4.36-0.24,6.57-0.37c0-13.91,0-27.71,0-41.65c-2.32-0.15-4.43-0.28-6.57-0.41
			C24.68,93,24.68,107.13,24.68,121.19z"/>
		<path class="st0" d="M168.82,120.83c2.21,0.14,4.28,0.26,6.5,0.4c0-14.22,0-28.35,0-42.44c-2.24,0.14-4.35,0.27-6.5,0.4
			C168.82,93.15,168.82,107,168.82,120.83z"/>
		<path class="st0" d="M118.18,168.86c1.2,2.06,2.27,3.89,3.42,5.86c10.04-5.79,20.05-11.56,30.04-17.33
			c-1.05-2.1-2.01-3.99-3.07-6.1C138.38,157.19,128.25,163.04,118.18,168.86z"/>
		<path class="st0" d="M48.36,157.35c10.08,5.81,20.07,11.57,30.03,17.31c1.19-2.07,2.25-3.9,3.38-5.87
			c-10.14-5.86-20.25-11.7-30.35-17.54C50.38,153.33,49.43,155.23,48.36,157.35z"/>
		<path class="st0" d="M151.63,42.63c-10.05-5.8-20.02-11.55-30.02-17.32c-1.15,1.99-2.21,3.83-3.38,5.87
			c10.1,5.84,20.22,11.69,30.36,17.55C149.63,46.63,150.61,44.68,151.63,42.63z"/>
		<path class="st0" d="M81.76,31.21c-1.22-2.1-2.29-3.94-3.4-5.86c-10.07,5.81-20.08,11.59-30.01,17.32
			c1.11,2.17,2.08,4.08,3.09,6.06C61.58,42.88,71.71,37.02,81.76,31.21z"/>
		<path class="st0" d="M44.6,73.55c5.07,2.96,10.05,5.87,15.05,8.8c1.14-2.13,2.15-4.01,3.22-6.02c-4.59-2.68-9.15-5.35-13.8-8.06
			C47.55,70.07,46.13,71.73,44.6,73.55z"/>
		<path class="st0" d="M137.13,76.34c1.13,2.08,2.18,3.99,3.26,5.98c5.06-2.95,9.99-5.83,15-8.76c-1.56-1.84-2.98-3.5-4.47-5.25
			C146.38,70.95,141.83,73.6,137.13,76.34z"/>
		<path class="st0" d="M64.8,126.43c-1.28-2-2.43-3.79-3.66-5.7c-4.75,2.79-9.41,5.52-14.09,8.25c1.27,2.02,2.42,3.86,3.61,5.76
			C55.43,131.94,60.08,129.2,64.8,126.43z"/>
		<path class="st0" d="M135.24,126.45c4.78,2.8,9.44,5.53,14.11,8.27c1.22-1.98,2.36-3.82,3.57-5.79c-4.65-2.72-9.2-5.38-14.03-8.2
			C137.66,122.66,136.49,124.5,135.24,126.45z"/>
		<path class="st0" d="M103.18,39.77c-2.2,0-4.2,0-6.4,0c0,5.44,0,10.82,0,16.2c2.25,0,4.36,0,6.4,0
			C103.18,50.45,103.18,45.08,103.18,39.77z"/>
		<path class="st0" d="M96.82,160.22c2.18,0,4.18,0,6.41,0c0-5.42,0-10.79,0-16.17c-2.25,0-4.35,0-6.41,0
			C96.82,149.55,96.82,154.92,96.82,160.22z"/>
	</g>
</g>
</svg>
