<?xml version="1.0" encoding="utf-8"?>
<!-- Generator: Adobe Illustrator 27.0.0, SVG Export Plug-In . SVG Version: 6.00 Build 0)  -->
<svg version="1.1" id="Capa_1" xmlns="http://www.w3.org/2000/svg" xmlns:xlink="http://www.w3.org/1999/xlink" x="0px" y="0px"
	 viewBox="0 0 200 200" style="enable-background:new 0 0 200 200;" xml:space="preserve">
<style type="text/css">
	.st0{fill:#222221;}
	.st1{fill:#55565A;}
	.st2{fill:#4C428D;}
	.st3{fill:#26B1DC;}
	.st4{fill:#F5E134;}
</style>
<path class="st0" d="M175.71,110.49h8.51c0.43,0,0.78-0.35,0.78-0.78V90.29c0-0.43-0.35-0.78-0.78-0.78h-8.67
	c-6.47,0-12.24-4.14-14.36-10.3c-0.91-2.65-2.01-5.27-3.27-7.79c-2.89-5.79-1.78-12.74,2.77-17.28l6.27-6.27
	c0.15-0.15,0.23-0.34,0.23-0.55c0-0.21-0.08-0.4-0.23-0.55l-13.73-13.74c-0.15-0.15-0.34-0.23-0.55-0.23h0
	c-0.21,0-0.4,0.08-0.55,0.23l-6.35,6.36c-4.52,4.52-11.44,5.65-17.23,2.79c-2.52-1.24-5.15-2.33-7.8-3.23
	c-6.14-2.08-10.27-7.82-10.27-14.27v-8.9c0-0.43-0.35-0.78-0.78-0.78H90.29c-0.43,0-0.78,0.35-0.78,0.78v8.9
	c0,6.45-4.13,12.18-10.27,14.27c-2.64,0.89-5.26,1.98-7.8,3.23c-5.77,2.86-12.7,1.73-17.23-2.79l-6.35-6.36
	c-0.26-0.27-0.83-0.27-1.1,0L33.03,46.76c-0.15,0.15-0.23,0.34-0.23,0.55c0,0.21,0.08,0.4,0.23,0.55l6.27,6.28
	c4.54,4.54,5.65,11.49,2.77,17.28c-1.26,2.52-2.36,5.15-3.27,7.79c-2.12,6.16-7.89,10.3-14.36,10.3h-8.67
	c-0.43,0-0.78,0.35-0.78,0.78v19.42c0,0.43,0.35,0.78,0.78,0.78h8.51c6.51,0,12.29,4.17,14.38,10.38c0.92,2.71,2.02,5.38,3.28,7.93
	c2.86,5.77,1.73,12.69-2.79,17.22l-6.12,6.12c-0.15,0.15-0.23,0.34-0.23,0.55c0,0.21,0.08,0.4,0.23,0.55l13.73,13.73
	c0.13,0.14,0.34,0.21,0.55,0.21h0c0.21,0,0.41-0.08,0.54-0.21l6.05-6.05c2.81-2.81,6.56-4.36,10.54-4.36c2.31,0,4.64,0.55,6.73,1.59
	c2.55,1.27,5.22,2.39,7.92,3.32c6.22,2.13,10.41,7.94,10.41,14.47v8.27c0,0.43,0.35,0.78,0.78,0.78h19.41
	c0.43,0,0.78-0.35,0.78-0.78v-8.27c0-6.53,4.18-12.35,10.4-14.47c2.7-0.93,5.37-2.04,7.92-3.32c5.78-2.88,12.72-1.78,17.27,2.77
	l6.05,6.05c0.3,0.3,0.8,0.3,1.11,0l13.73-13.73c0.15-0.15,0.23-0.34,0.23-0.55c0-0.21-0.08-0.4-0.23-0.55l-6.12-6.12
	c-4.52-4.53-5.65-11.45-2.79-17.22c1.26-2.54,2.36-5.21,3.28-7.92C163.42,114.66,169.2,110.49,175.71,110.49z M100,151.77
	c-28.55,0-51.77-23.22-51.77-51.77c0-28.55,23.22-51.77,51.77-51.77s51.77,23.22,51.77,51.77
	C151.77,128.55,128.54,151.77,100,151.77z"/>
</svg>
