<?xml version="1.0" encoding="utf-8"?>
<!-- Generator: Adobe Illustrator 27.0.0, SVG Export Plug-In . SVG Version: 6.00 Build 0)  -->
<svg version="1.1" id="Capa_1" xmlns="http://www.w3.org/2000/svg" xmlns:xlink="http://www.w3.org/1999/xlink" x="0px" y="0px"
	 viewBox="0 0 200 200" style="enable-background:new 0 0 200 200;" xml:space="preserve">
<style type="text/css">
	.st0{fill:#222221;}
	.st1{fill:#55565A;}
	.st2{fill:#4C428D;}
	.st3{fill:#26B1DC;}
	.st4{fill:#F5E134;}
</style>
<g>
	<path class="st0" d="M150.47,164.13H49.08c-2.18,0-3.95-1.77-3.95-3.95V40.23c0-2.18,1.77-3.95,3.95-3.95h101.39
		c2.18,0,3.95,1.77,3.95,3.95v119.95C154.42,162.36,152.65,164.13,150.47,164.13z M53.03,156.23h93.49V44.18H53.03V156.23z"/>
	<path class="st0" d="M169.44,180.9h-21.19c-1.46,0-2.63-1.18-2.63-2.63c0-1.46,1.18-2.63,2.63-2.63h18.56v-18.19
		c0-1.46,1.18-2.63,2.63-2.63s2.63,1.18,2.63,2.63v20.82C172.07,179.72,170.9,180.9,169.44,180.9z"/>
	<path class="st0" d="M169.44,45.56c-1.46,0-2.63-1.18-2.63-2.63V24.36h-19.68c-1.46,0-2.63-1.18-2.63-2.63s1.18-2.63,2.63-2.63
		h22.31c1.46,0,2.63,1.18,2.63,2.63v21.19C172.07,44.38,170.9,45.56,169.44,45.56z"/>
	<path class="st0" d="M28.89,47.79c-1.46,0-2.63-1.18-2.63-2.63V21.73c0-1.46,1.18-2.63,2.63-2.63h23.05c1.46,0,2.63,1.18,2.63,2.63
		s-1.18,2.63-2.63,2.63H31.52v20.79C31.52,46.61,30.34,47.79,28.89,47.79z"/>
	<path class="st0" d="M50.45,180.9H28.89c-1.46,0-2.63-1.18-2.63-2.63v-20.82c0-1.46,1.18-2.63,2.63-2.63s2.63,1.18,2.63,2.63v18.19
		h18.93c1.46,0,2.63,1.18,2.63,2.63C53.09,179.72,51.91,180.9,50.45,180.9z"/>
	<path class="st0" d="M112.55,68.98h-26.4c-1.46,0-2.63-1.18-2.63-2.63c0-1.46,1.18-2.63,2.63-2.63h26.4c1.46,0,2.63,1.18,2.63,2.63
		C115.18,67.81,114,68.98,112.55,68.98z"/>
	<path class="st0" d="M130.03,87.57H68.3c-1.46,0-2.63-1.18-2.63-2.63c0-1.46,1.18-2.63,2.63-2.63h61.72c1.46,0,2.63,1.18,2.63,2.63
		C132.66,86.4,131.48,87.57,130.03,87.57z"/>
	<path class="st0" d="M130.03,136.65H68.3c-1.46,0-2.63-1.18-2.63-2.63s1.18-2.63,2.63-2.63h61.72c1.46,0,2.63,1.18,2.63,2.63
		S131.48,136.65,130.03,136.65z"/>
	<path class="st0" d="M130.03,120.3H68.3c-1.46,0-2.63-1.18-2.63-2.63c0-1.46,1.18-2.63,2.63-2.63h61.72c1.46,0,2.63,1.18,2.63,2.63
		C132.66,119.12,131.48,120.3,130.03,120.3z"/>
	<path class="st0" d="M173.53,89.27c-5.51,0-9.91,3.98-11.01,9.18c-0.27-0.1-0.48-0.34-0.78-0.34H38.31c-0.32,0-0.55,0.24-0.83,0.36
		c-1.09-5.2-5.49-9.2-11.01-9.2c-6.33,0-11.47,5.14-11.47,11.47c0,6.33,5.14,11.47,11.47,11.47c5.52,0,9.92-3.99,11.01-9.2
		c0.28,0.12,0.51,0.36,0.83,0.36h123.43c0.31,0,0.51-0.23,0.78-0.34c1.1,5.19,5.49,9.18,11.01,9.18c6.33,0,11.47-5.14,11.47-11.47
		C185,94.42,179.86,89.27,173.53,89.27z M26.47,107.89c-3.94,0-7.15-3.21-7.15-7.15c0-3.94,3.21-7.15,7.15-7.15s7.15,3.21,7.15,7.15
		C33.62,104.68,30.41,107.89,26.47,107.89z M173.53,107.89c-3.94,0-7.15-3.21-7.15-7.15c0-3.94,3.21-7.15,7.15-7.15
		c3.94,0,7.15,3.21,7.15,7.15C180.68,104.68,177.47,107.89,173.53,107.89z"/>
</g>
</svg>
