<?xml version="1.0" encoding="utf-8"?>
<!-- Generator: Adobe Illustrator 27.0.0, SVG Export Plug-In . SVG Version: 6.00 Build 0)  -->
<svg version="1.1" id="Capa_1" xmlns="http://www.w3.org/2000/svg" xmlns:xlink="http://www.w3.org/1999/xlink" x="0px" y="0px"
	 viewBox="0 0 200 200" style="enable-background:new 0 0 200 200;" xml:space="preserve">
<style type="text/css">
	.st0{fill:#222221;}
	.st1{fill:#55565A;}
	.st2{fill:#4C428D;}
	.st3{fill:#26B1DC;}
	.st4{fill:#F5E134;}
</style>
<g>
	<path class="st0" d="M100.05,126.72c-9.74,0-19.48-0.03-29.23,0.01c-28.13,0.1-49.58,21.28-50.03,49.38
		c-0.09,5.8,0.08,11.61-0.17,17.4c-0.16,3.78-3.18,6.43-6.68,6.49c-3.48,0.05-6.77-2.58-6.84-6.31
		c-0.21-11.16-1.01-22.38,1.88-33.38c7.38-28.03,32.08-47.2,61.13-47.31c19.48-0.07,38.97-0.02,58.45-0.01
		c35.04,0.02,61.84,24.86,64.29,59.81c0.47,6.7,0.28,13.46,0.15,20.19c-0.07,3.81-2.51,6.38-5.94,6.93c-2.81,0.45-6-1.19-7.07-3.95
		c-0.54-1.4-0.71-3.02-0.73-4.54c-0.1-5.49,0.07-10.99-0.11-16.47c-0.77-23.58-16.65-42.51-39.71-47.25
		c-3.32-0.68-6.78-0.89-10.18-0.93C119.53,126.65,109.79,126.72,100.05,126.72z"/>
	<path class="st0" d="M99.93,99.3c-27.39-0.16-49.7-22.53-49.58-49.73C50.48,22.09,72.86-0.09,100.39,0
		c27.16,0.09,49.41,22.68,49.28,50.02C149.54,77.05,126.92,99.46,99.93,99.3z M99.66,85.49c19.47,0.41,35.71-15.47,36.2-35.42
		c0.48-19.36-15.72-35.97-35.37-36.28c-19.63-0.31-35.85,15.43-36.35,35.28C63.65,68.7,79.61,85.06,99.66,85.49z"/>
</g>
</svg>
