<?xml version="1.0" encoding="utf-8"?>
<!-- Generator: Adobe Illustrator 27.0.0, SVG Export Plug-In . SVG Version: 6.00 Build 0)  -->
<svg version="1.1" id="Capa_1" xmlns="http://www.w3.org/2000/svg" xmlns:xlink="http://www.w3.org/1999/xlink" x="0px" y="0px"
	 viewBox="0 0 200 200" style="enable-background:new 0 0 200 200;" xml:space="preserve">
<style type="text/css">
	.st0{fill:#222221;}
	.st1{fill:#55565A;}
	.st2{fill:#4C428D;}
	.st3{fill:#26B1DC;}
	.st4{fill:#F5E134;}
</style>
<g>
	<path class="st0" d="M184.44,193.91l-48.66-58.49c16.95-13.97,27.84-35.34,27.84-59.28C163.62,34.16,130.22,0,89.16,0
		C48.1,0,14.7,34.16,14.7,76.14c0,41.98,33.4,76.14,74.46,76.14c15.05,0,29.04-4.62,40.76-12.5l49.01,58.92
		c0.69,0.83,1.69,1.3,2.75,1.3c0.86,0,1.69-0.31,2.34-0.88C185.54,197.8,185.73,195.46,184.44,193.91z M89.16,144.89
		c-37.07,0-67.23-30.84-67.23-68.75c0-37.91,30.16-68.75,67.23-68.75c37.07,0,67.23,30.84,67.23,68.75
		C156.39,114.05,126.23,144.89,89.16,144.89z"/>
</g>
</svg>
