<?xml version="1.0" encoding="utf-8"?>
<!-- Generator: Adobe Illustrator 27.0.0, SVG Export Plug-In . SVG Version: 6.00 Build 0)  -->
<svg version="1.1" id="Capa_1" xmlns="http://www.w3.org/2000/svg" xmlns:xlink="http://www.w3.org/1999/xlink" x="0px" y="0px"
	 viewBox="0 0 200 200" style="enable-background:new 0 0 200 200;" xml:space="preserve">
<style type="text/css">
	.st0{fill:#222221;}
	.st1{fill:#55565A;}
	.st2{fill:#4C428D;}
	.st3{fill:#26B1DC;}
	.st4{fill:#F5E134;}
</style>
<g>
	<path class="st0" d="M195.57,41.76c-1.51,4.47-4.69,6.03-9.32,6.02c-57.67-0.08-115.34-0.05-173.02-0.06
		c-1.17,0-2.38-0.05-3.5-0.36c-3.44-0.96-5.62-4.3-5.27-7.84c0.35-3.58,3.3-6.44,6.91-6.69c0.74-0.05,1.49-0.02,2.24-0.02
		c57.55,0,115.1,0.03,172.64-0.05c4.63-0.01,7.81,1.54,9.31,6.02C195.57,39.77,195.57,40.77,195.57,41.76z"/>
	<path class="st0" d="M195.57,101.49c-1.51,4.47-4.69,6.03-9.32,6.02c-57.67-0.08-115.34-0.05-173.02-0.06
		c-1.17,0-2.38-0.05-3.5-0.36c-3.44-0.96-5.62-4.3-5.27-7.84c0.35-3.58,3.3-6.44,6.91-6.69c0.74-0.05,1.49-0.02,2.24-0.02
		c57.55,0,115.1,0.03,172.64-0.05c4.63-0.01,7.81,1.54,9.31,6.02C195.57,99.5,195.57,100.5,195.57,101.49z"/>
	<path class="st0" d="M195.57,161.22c-1.51,4.47-4.69,6.03-9.32,6.02c-57.67-0.08-115.34-0.05-173.02-0.06
		c-1.17,0-2.38-0.05-3.5-0.36c-3.44-0.96-5.62-4.3-5.27-7.84c0.35-3.58,3.3-6.44,6.91-6.69c0.74-0.05,1.49-0.02,2.24-0.02
		c57.55,0,115.1,0.03,172.64-0.05c4.63-0.01,7.81,1.54,9.31,6.02C195.57,159.23,195.57,160.23,195.57,161.22z"/>
</g>
</svg>
