<?xml version="1.0" encoding="utf-8"?>
<!-- Generator: Adobe Illustrator 27.0.0, SVG Export Plug-In . SVG Version: 6.00 Build 0)  -->
<svg version="1.1" id="Capa_1" xmlns="http://www.w3.org/2000/svg" xmlns:xlink="http://www.w3.org/1999/xlink" x="0px" y="0px"
	 viewBox="0 0 200 200" style="enable-background:new 0 0 200 200;" xml:space="preserve">
<style type="text/css">
	.st0{fill:#222221;}
	.st1{fill:#55565A;}
	.st2{fill:#4C428D;}
	.st3{fill:#26B1DC;}
	.st4{fill:#F5E134;}
</style>
<g>
	<path class="st0" d="M77.35,92.23c0.43,1.96,0.86,3.91,1.35,6.15c-7.63,1.63-15.19,3.23-22.75,4.84c0.01,0.12,0.02,0.25,0.04,0.37
		c8.38,1.77,16.76,3.56,25.15,5.32c6.05,1.27,12.09,2.55,18.15,3.74c1.01,0.2,2.13,0.15,3.14-0.06c13.75-2.84,27.48-5.73,41.22-8.62
		c0.56-0.12,1.1-0.29,1.68-0.78c-7.52-1.59-15.03-3.19-22.74-4.82c0.45-2.12,0.87-4.11,1.34-6.3c5.53,1.17,10.9,2.3,16.27,3.43
		c7.16,1.51,14.34,2.97,21.48,4.57c1.17,0.26,2.41,0.93,3.26,1.77c6.06,5.93,12.03,11.94,18.01,17.95c2.7,2.71,1.97,5.39-1.72,6.36
		c-3.38,0.88-6.74,1.88-10.17,2.48c-2.22,0.39-2.66,1.38-2.65,3.47c0.09,14.59,0.05,29.19,0.05,43.78c0,3.79-0.38,4.28-4.03,5.38
		c-20.26,6.08-40.52,12.13-60.76,18.26c-2.09,0.63-3.96,0.63-6.07-0.01c-20.3-6.16-40.63-12.22-60.95-18.31
		c-3.45-1.03-3.83-1.52-3.83-5.1c0-14.86-0.04-29.73,0.05-44.59c0.01-1.79-0.59-2.43-2.24-2.79c-3.67-0.8-7.32-1.76-10.95-2.72
		c-3.23-0.86-4-3.54-1.67-5.89c6.2-6.26,12.44-12.48,18.7-18.68c0.59-0.58,1.43-1.08,2.23-1.25c12.55-2.68,25.1-5.29,37.66-7.92
		C76.8,92.23,76.99,92.24,77.35,92.23z M97.29,192.65c0-22.02,0-43.76,0-65.94c-0.65,0.84-1.06,1.34-1.43,1.85
		c-2.7,3.77-5.39,7.55-8.1,11.32c-1.64,2.29-2.41,2.57-5.13,1.89c-13.82-3.45-27.63-6.9-41.45-10.34c-0.55-0.14-1.12-0.19-1.75-0.3
		c-0.07,0.46-0.14,0.72-0.14,0.98c-0.01,13.92,0,27.84-0.04,41.77c0,1.23,0.57,1.56,1.59,1.87c8.18,2.42,16.34,4.9,24.5,7.35
		C75.9,186.25,86.45,189.4,97.29,192.65z M104.42,127.17c-0.13,0.03-0.27,0.07-0.4,0.1c0,21.71,0,43.43,0,65.27
		c0.6-0.14,1.06-0.22,1.5-0.35c18.26-5.46,36.51-10.94,54.77-16.37c1.31-0.39,1.76-0.98,1.76-2.39
		c-0.06-13.51-0.03-27.02-0.04-40.53c0-0.57-0.1-1.14-0.17-1.83c-0.63,0.13-1.08,0.2-1.53,0.31c-13.87,3.45-27.73,6.9-41.59,10.35
		c-2.86,0.71-3.57,0.45-5.28-1.94C110.43,135.59,107.43,131.38,104.42,127.17z M175.05,121c-4.74-4.74-9.18-9.21-13.7-13.61
		c-0.34-0.33-1.24-0.25-1.84-0.13c-14.53,3.02-29.04,6.07-43.56,9.12c-3.17,0.67-6.34,1.36-9.78,2.1
		c3.79,5.31,7.42,10.31,10.93,15.38c0.8,1.16,1.52,1.3,2.82,0.97c15.41-3.91,30.84-7.75,46.27-11.61
		C169.02,122.53,171.85,121.81,175.05,121z M94.97,118.62c-0.41-0.19-0.57-0.31-0.75-0.35c-17.6-3.71-35.19-7.43-52.81-11.08
		c-0.61-0.13-1.55,0.27-2.03,0.74c-3.19,3.08-6.27,6.27-9.46,9.36c-1.18,1.14-2.53,2.1-4.09,3.38c1.06,0.45,1.3,0.59,1.55,0.66
		c18.1,4.52,36.21,9,54.3,13.58c1.28,0.32,1.8-0.11,2.43-1.01c3.02-4.28,6.08-8.54,9.12-12.8C93.81,120.3,94.36,119.49,94.97,118.62
		z"/>
	<path class="st0" d="M82.83,47.92c0.68-4.11,1.35-8.43,2.12-12.72c0.26-1.45,0.02-2.49-1.11-3.56c-2.82-2.69-5.47-5.56-8.21-8.33
		c-1.05-1.06-1.81-2.22-1.31-3.77c0.49-1.52,1.68-2.12,3.21-2.34c3.92-0.56,7.85-1.14,11.74-1.88c0.81-0.15,1.8-0.87,2.17-1.6
		c1.88-3.71,3.6-7.5,5.35-11.28c0.64-1.38,1.52-2.4,3.14-2.44c1.72-0.04,2.64,1.03,3.31,2.48c1.72,3.72,3.51,7.4,5.2,11.13
		c0.49,1.08,1.05,1.63,2.33,1.79c4,0.51,7.99,1.09,11.93,1.93c1.11,0.24,2.5,1.29,2.86,2.3c0.33,0.91-0.27,2.54-1,3.37
		c-2.68,3.01-5.52,5.89-8.43,8.67c-1.14,1.09-1.32,2.15-1.06,3.58c0.72,4.03,1.46,8.07,1.91,12.14c0.13,1.14-0.41,2.65-1.17,3.53
		c-1.03,1.2-2.54,0.8-3.88,0.05c-3.33-1.88-6.74-3.64-10.03-5.6c-1.4-0.83-2.44-0.77-3.82,0.05c-3.34,1.99-6.78,3.84-10.22,5.66
		C85.29,52.44,82.71,50.87,82.83,47.92z M100,10.84c-1.4,2.98-2.59,5.45-3.72,7.95c-0.7,1.55-1.8,2.4-3.51,2.62
		c-2.76,0.35-5.5,0.84-8.6,1.33c2.25,2.32,4.21,4.42,6.25,6.43c1.26,1.25,1.69,2.61,1.34,4.37c-0.56,2.82-0.95,5.67-1.46,8.81
		c2.44-1.34,4.69-2.41,6.76-3.76c2.09-1.36,3.92-1.25,5.97,0.04c2.06,1.3,4.26,2.37,6.65,3.68c-0.49-3.07-0.8-5.8-1.39-8.48
		c-0.44-2.01,0.05-3.49,1.5-4.88c2.01-1.93,3.9-3.98,6.07-6.21c-3.11-0.49-5.8-1-8.52-1.32c-1.81-0.21-2.93-1.09-3.66-2.71
		C102.57,16.22,101.38,13.76,100,10.84z"/>
	<path class="st0" d="M188.08,67.77c-1.01-0.53-2.62-1.12-3.93-2.1c-2.37-1.77-4.51-1.75-6.83,0.03c-0.94,0.73-2.07,1.24-3.18,1.73
		c-2.45,1.08-4.89-0.75-4.57-3.42c0.17-1.46,0.27-2.98,0.74-4.36c0.88-2.56-0.01-4.35-1.97-5.93c-0.93-0.75-1.89-1.6-2.49-2.61
		c-0.6-1.01-1.31-2.48-0.98-3.38c0.38-1.01,1.76-1.94,2.9-2.32c1.69-0.56,3.59-0.5,5.34-0.94c0.76-0.19,1.61-0.83,2.01-1.51
		c0.97-1.68,1.52-3.62,2.6-5.21c0.67-0.98,2-2.08,3.03-2.07c1.03,0,2.31,1.12,3.03,2.09c0.94,1.27,1.59,2.82,2.08,4.33
		c0.59,1.8,1.75,2.46,3.5,2.61c1.54,0.13,3.07,0.35,4.58,0.68c2.98,0.64,3.85,3.33,1.86,5.61c-0.62,0.71-1.22,1.48-1.98,2.01
		c-2.95,2.07-3.5,4.77-2.43,8.05c0.31,0.95,0.41,1.97,0.52,2.97C192.15,66.09,190.63,67.81,188.08,67.77z M174.79,50.82
		c2.53,3.35,2.53,3.35,2.46,7.62c2.32-1.92,4.66-1.82,6.96-0.08c0-1.64-0.31-3.06,0.09-4.24c0.4-1.18,1.5-2.11,2.53-3.45
		c-3.14,0.23-5.08-1.12-6.12-4.06C179.83,49.74,177.6,50.67,174.79,50.82z"/>
	<path class="st0" d="M9.28,63.24c-0.2-0.34-0.43-0.95-0.85-1.4c-1.36-1.48-2.83-2.87-4.19-4.36c-2.05-2.25-1.2-4.99,1.77-5.62
		c1.9-0.41,3.86-0.52,5.75-0.97c0.7-0.17,1.49-0.79,1.85-1.42c0.93-1.63,1.67-3.36,2.44-5.08c0.62-1.39,1.53-2.39,3.15-2.42
		c1.62-0.03,2.57,0.93,3.22,2.31c1,2.12,1.53,4.87,3.18,6.17c1.58,1.23,4.4,0.75,6.57,1.39c1.14,0.34,2.59,1.29,2.91,2.28
		c0.32,0.98-0.35,2.55-1.05,3.54c-1.03,1.46-2.59,2.55-3.69,3.98c-0.57,0.74-0.93,1.88-0.87,2.81c0.12,1.93,0.8,3.84,0.83,5.76
		c0.02,1.12-0.46,2.67-1.27,3.27c-0.81,0.59-2.46,0.59-3.49,0.19c-2.17-0.85-4.16-2.98-6.24-2.99c-2.07-0.01-4.15,1.92-6.22,3.02
		c-1.3,0.69-2.75,0.92-3.71-0.21c-0.72-0.86-1.22-2.24-1.17-3.36C8.33,67.94,8.87,65.76,9.28,63.24z M12.87,57.3
		c2.92,2.01,3.74,4.41,2.86,7.5c2.46-1.98,4.75-1.62,7.18-0.06c-1.17-3.19,0.02-5.43,2.77-7.51c-3.35-0.03-5.47-1.13-6.45-4.21
		C18.41,56.26,16.12,57.11,12.87,57.3z"/>
	<path class="st0" d="M42.96,57.81c-0.73-2.02-1.41-3.89-2.19-6.03c10.6-3.53,20.78-3.36,30.04,2.89
		c12.53,8.47,16.69,21.07,16.33,35.71c-1.23,0-2.28,0.03-3.33-0.01c-0.99-0.04-1.98-0.15-2.66-0.21c-0.59-4.32-0.83-8.49-1.77-12.49
		c-1.69-7.16-5.45-13.14-11.63-17.33c-6.97-4.72-14.6-5.29-22.58-3.16C44.53,57.36,43.89,57.55,42.96,57.81z"/>
	<path class="st0" d="M119.29,90.32c-2.11,0-4.1,0-6.42,0c1.04-11.99,5.12-22.38,14.88-29.69c10.39-7.78,22.05-9.14,34.48-5.68
		c-0.1,0.55-0.11,0.89-0.22,1.2c-0.53,1.58-1.08,3.16-1.68,4.91c-9.97-2.69-19.46-1.84-27.96,4.17
		C123.87,71.23,120.33,80.05,119.29,90.32z"/>
	<path class="st0" d="M103.09,90.3c-2.13,0-4.12,0-6.21,0c0-12.83,0-25.58,0-38.49c1.99,0,4.03,0,6.21,0
		C103.09,64.54,103.09,77.33,103.09,90.3z"/>
	<path class="st0" d="M96.82,103.17c0-2.12,0-4.06,0-6.16c2.05,0,4.08,0,6.27,0c0,1.96,0,4,0,6.16
		C101.07,103.17,99.03,103.17,96.82,103.17z"/>
</g>
</svg>
