<?xml version="1.0" encoding="utf-8"?>
<!-- Generator: Adobe Illustrator 27.0.0, SVG Export Plug-In . SVG Version: 6.00 Build 0)  -->
<svg version="1.1" id="Capa_1" xmlns="http://www.w3.org/2000/svg" xmlns:xlink="http://www.w3.org/1999/xlink" x="0px" y="0px"
	 viewBox="0 0 200 200" style="enable-background:new 0 0 200 200;" xml:space="preserve">
<style type="text/css">
	.st0{fill:#222221;}
	.st1{fill:#55565A;}
	.st2{fill:#4C428D;}
	.st3{fill:#26B1DC;}
	.st4{fill:#F5E134;}
</style>
<g>
	<path class="st0" d="M196.87,84.89c-0.5,2.46-0.9,4.94-1.53,7.37c-4.5,17.4-19.31,30.41-37.13,32.78
		c-0.67,0.09-1.51,0.65-1.85,1.23c-7.48,12.8-18.51,20.3-33.16,22.55c-0.66,0.1-1.44,0.71-1.78,1.31
		c-6.93,11.91-17.09,19.36-30.62,21.92c-2.6,0.49-4.1,1.48-5.46,3.7c-9.5,15.45-27.12,23.29-45.14,20.29
		c-17.58-2.93-31.89-16.46-35.86-33.94c-2.45-10.76-1.22-21.15,4.18-30.74c9.6-17.07,19.44-34.01,29.32-50.92
		c4.53-7.75,14.8-7.75,19.69-0.2c0.2,0.32,0.4,0.64,0.73,1.18c0.41-0.64,0.79-1.16,1.11-1.71c4.38-7.58,8.71-15.19,13.15-22.74
		c3.98-6.76,12.46-8.14,17.88-2.95c1.03,0.99,1.82,2.23,2.85,3.53c0.35-0.57,0.72-1.12,1.05-1.69c4.22-7.31,8.63-14.51,12.6-21.96
		c4.87-9.15,16.56-8.52,20.66-0.73c0.11,0.2,0.29,0.36,0.57,0.69c1.15-1.98,2.22-3.8,3.29-5.64c3.53-6.11,7.04-12.23,10.58-18.33
		c5.08-8.75,15.62-8.77,20.68-0.03c9.28,16.03,18.52,32.07,27.78,48.11c3.25,5.63,5.45,11.61,6.11,18.11
		c0.03,0.29,0.2,0.57,0.31,0.86C196.87,79.6,196.87,82.24,196.87,84.89z M90.52,164.5c1.11-0.3,1.89-0.49,2.65-0.71
		c22.23-6.63,33.53-32.68,21.38-53.74c-9.44-16.36-18.87-32.73-28.33-49.08c-1.93-3.34-5.33-3.36-7.26-0.05
		c-5.22,8.98-10.38,18-15.62,26.97c-0.56,0.96-0.51,1.67,0.04,2.58c1.38,2.26,2.75,4.53,3.96,6.87c1.34,2.6-0.42,5.56-3.23,5.58
		c-1.77,0.01-2.88-1.03-3.72-2.49c-3.03-5.3-6.07-10.6-9.16-15.87c-1.81-3.08-5.2-3.2-6.94-0.19c-9.84,17-19.74,33.97-29.38,51.09
		c-3.98,7.07-5.09,14.87-3.59,22.89c3.81,20.44,21.79,33.23,42.37,30.24c20.21-2.94,34.48-23.51,30.26-43.51
		c-1.1-5.2-3.37-9.85-6.02-14.38c-1.24-2.12-0.62-4.31,1.33-5.38c1.87-1.02,4.01-0.45,5.18,1.6c1.5,2.62,3.02,5.25,4.21,8.01
		C92.77,144.39,93.25,154.16,90.52,164.5z M125.35,140.69c1.19-0.29,2.03-0.46,2.86-0.71c22.07-6.67,33.53-32.77,21-54.15
		c-9.38-16.02-18.59-32.15-27.88-48.23c-2.27-3.92-5.47-3.93-7.73-0.01c-5.04,8.72-10.04,17.46-15.14,26.14
		c-0.76,1.29-0.66,2.17,0.06,3.4c7.32,12.56,14.63,25.13,21.8,37.78c1.82,3.21,3.41,6.61,4.61,10.1
		C127.79,123.33,127.79,131.81,125.35,140.69z M160.38,117.03c1.99-0.64,3.75-1.11,5.44-1.76c20.03-7.76,30.41-32.45,18.24-53.25
		c-9.38-16.03-18.59-32.15-27.88-48.23c-2.22-3.84-5.44-3.87-7.65-0.06c-5.08,8.77-10.11,17.57-15.23,26.31
		c-0.71,1.21-0.65,2.06,0.03,3.23c7.41,12.73,14.74,25.51,22.13,38.25c5.05,8.7,7.42,17.99,6.22,28.06
		C161.4,111.93,160.87,114.27,160.38,117.03z"/>
	<path class="st0" d="M76.34,113.86c-0.01,2.08-1.65,3.73-3.72,3.75c-2.14,0.02-3.84-1.72-3.79-3.87c0.06-2.08,1.72-3.67,3.81-3.63
		C74.73,110.13,76.34,111.77,76.34,113.86z"/>
</g>
</svg>
