<?xml version="1.0" encoding="utf-8"?>
<!-- Generator: Adobe Illustrator 27.0.0, SVG Export Plug-In . SVG Version: 6.00 Build 0)  -->
<svg version="1.1" id="Capa_1" xmlns="http://www.w3.org/2000/svg" xmlns:xlink="http://www.w3.org/1999/xlink" x="0px" y="0px"
	 viewBox="0 0 200 200" style="enable-background:new 0 0 200 200;" xml:space="preserve">
<style type="text/css">
	.st0{fill:#222221;}
	.st1{fill:#55565A;}
	.st2{fill:#4C428D;}
	.st3{fill:#26B1DC;}
	.st4{fill:#F5E134;}
</style>
<g>
	<path class="st0" d="M105.26,196.82c-16.39,0-32.78,0-49.17,0c-2.02-1.12-4.05-2.2-6.05-3.35c-12.59-7.25-25.11-14.63-37.79-21.73
		c-4.52-2.53-7.95-5.65-9.12-10.85c0-40.59,0-81.18,0-121.78c1.11-4.62,3.84-7.82,7.99-10.19c14.1-8.06,28.09-16.33,42.18-24.41
		c1.41-0.81,3.22-1.26,4.85-1.27c14.94-0.1,29.88-0.08,44.82-0.05c5.76,0.01,9.82,4.14,9.89,9.93c0.02,2,0,4,0,6.23
		c0.93,0,1.67,0,2.41,0c23.45,0,46.9,0.14,70.35-0.08c7.49-0.07,11.3,5.15,11.26,11.18c-0.17,29.18-0.08,58.36-0.08,87.54
		c0,7.24-3.84,11.08-11.07,11.08c-17.02,0-34.04,0-51.06,0c-0.74,0-1.48,0-2.34,0c0,8.66,0,17.13,0,25.78c0.79,0,1.47,0,2.15,0
		c7.75,0,15.51-0.02,23.26,0.01c3.98,0.02,6.63,2.6,6.8,6.58c0.07,1.7,0.02,3.4,0.02,5.1c-0.01,5.24-2.4,7.64-7.62,7.65
		c-13.93,0.01-27.86,0-41.79,0c-0.73,0-1.45,0-2.3,0c0,4.59,0.07,8.87-0.02,13.15c-0.08,3.87-1.98,6.68-5.39,8.46
		C106.72,196.18,105.98,196.49,105.26,196.82z M106.4,100.01c0-28.61,0-57.22,0-85.83c0-3.55-0.97-4.54-4.44-4.54
		c-14.25,0-28.49,0-42.74,0c-3.43,0-4.44,0.97-4.44,4.35c-0.01,57.35-0.01,114.7,0,172.05c0,3.37,1.02,4.35,4.44,4.35
		c14.06,0,28.11,0,42.17,0c4.19,0,5.01-0.81,5.01-4.92C106.4,156.98,106.4,128.49,106.4,100.01z M177.35,38.87
		c-21.54,0-42.98,0-64.4,0c0,23.64,0,47.13,0,70.66c21.53,0,42.97,0,64.4,0C177.35,85.87,177.35,62.39,177.35,38.87z M48.21,15.1
		c-0.92,0.51-1.53,0.82-2.12,1.16C35.4,22.43,24.74,28.65,14.01,34.72c-3.16,1.79-4.49,4.19-4.48,7.81
		C9.6,71.02,9.57,99.5,9.57,127.98c0,0.5-0.06,1.02,0.03,1.51c0.06,0.31,0.28,0.72,0.54,0.84c1.87,0.85,3.77,1.64,5.88,2.55
		c0-1.04,0-1.79,0-2.54c0-24.95,0-49.91,0-74.86c0-3.47-0.03-6.93,0.01-10.4c0.03-2.44,0.98-4.49,3.17-5.64
		c4.51-2.37,9.05-4.7,13.67-6.84c3.58-1.66,7.75,0.38,8.71,4.1c0.28,1.08,0.25,2.25,0.25,3.38c0.01,33.77,0.01,67.55,0.01,101.32
		c0,0.57-0.07,1.15,0.03,1.7c0.07,0.38,0.26,0.93,0.56,1.06c1.85,0.86,3.74,1.63,5.79,2.5C48.21,102.7,48.21,59.06,48.21,15.1z
		 M112.95,32.26c0.83,0,1.57,0,2.31,0c20.23,0,40.47,0.11,60.7-0.07c5.71-0.05,8.02,3.6,7.99,7.96
		c-0.13,22.69-0.06,45.38-0.06,68.07c0,5.56-2.38,7.96-7.92,7.96c-20.23,0-40.47,0-60.7,0c-0.74,0-1.48,0-2.29,0
		c0,2.24,0,4.27,0,6.37c0.63,0.03,1.12,0.08,1.62,0.08c23.83,0,47.65,0.01,71.48,0c3.19,0,4.26-1.12,4.26-4.38
		c0-29.37,0-58.74,0-88.11c0-3.34-1.01-4.32-4.45-4.32c-23.64,0-47.28,0-70.91,0c-0.67,0-1.33,0.06-2.03,0.09
		C112.95,28.08,112.95,30.07,112.95,32.26z M48.15,184.92c0.08-0.63,0.14-0.88,0.14-1.12c0.01-9.57-0.02-19.14,0.04-28.71
		c0.01-1.22-0.61-1.6-1.54-2c-11.85-5.06-23.7-10.14-35.55-15.21c-0.48-0.21-1-0.33-1.67-0.55c0,6.94,0.09,13.61-0.04,20.28
		c-0.07,3.55,1.33,5.91,4.41,7.65c8.82,4.97,17.56,10.1,26.33,15.16C42.82,181.88,45.37,183.33,48.15,184.92z M113.07,129.18
		c0,3.32,0,6.39,0,9.58c1.22,0,2.24-0.09,3.23,0.02c1.88,0.21,3.02,1.51,2.98,3.26c-0.04,1.75-1.22,2.95-3.14,3.09
		c-1.04,0.08-2.1,0.01-3.14,0.01c0,3.4,0,6.51,0,9.56c4.32,0,8.5,0,12.61,0c0-8.61,0-17.06,0-25.53
		C121.32,129.18,117.19,129.18,113.07,129.18z M157.99,161.46c-15.16,0-30.1,0-45.03,0c0,2.14,0,4.13,0,6.17
		c15.05,0,29.99,0,45.03,0C157.99,165.52,157.99,163.54,157.99,161.46z M35.26,87.01c0-7.31,0-14.52,0-21.89
		c-4.33,0.73-8.51,1.43-12.64,2.12c0,6.74,0,13.25,0,19.77C26.9,87.01,31.03,87.01,35.26,87.01z M35.29,93.67
		c-4.36,0-8.49,0-12.74,0c-0.03,0.71-0.08,1.32-0.08,1.93c-0.01,5.1,0.11,10.21-0.06,15.3c-0.07,1.99,0.47,2.73,2.47,2.95
		c3.46,0.39,6.88,1.08,10.41,1.67C35.29,108.1,35.29,100.95,35.29,93.67z M22.47,60.71c3.74-0.63,7.25-1.36,10.79-1.76
		c1.86-0.21,2.18-0.97,2.15-2.64c-0.11-4.84-0.04-9.69-0.04-14.54c0-0.98,0-1.95,0-3.28c-4.31,2.17-8.29,4.15-12.24,6.19
		c-0.31,0.16-0.64,0.65-0.64,0.99C22.46,50.62,22.47,55.58,22.47,60.71z M35.36,141.19c0-6.32,0.01-12.29-0.03-18.25
		c0-0.32-0.38-0.88-0.65-0.93c-4-0.71-8-1.36-12.21-2.05c0,5.13-0.02,10.02,0.03,14.91c0,0.37,0.41,0.93,0.77,1.08
		C27.17,137.69,31.09,139.35,35.36,141.19z"/>
	<path class="st0" d="M61.27,83.95c-0.05-10.71,8.61-19.46,19.25-19.45c10.68,0,19.37,8.63,19.44,19.3
		c0.08,10.64-8.65,19.43-19.28,19.43C69.92,103.22,61.31,94.67,61.27,83.95z M67.72,83.81c-0.02,7.15,5.64,12.9,12.77,12.94
		c7.2,0.04,13.02-5.74,13.02-12.93c0-7.04-5.84-12.87-12.91-12.89C73.53,70.92,67.75,76.7,67.72,83.81z"/>
	<path class="st0" d="M61.27,38.77c-0.05-10.72,8.56-19.4,19.25-19.4c10.75,0,19.37,8.54,19.44,19.25
		c0.07,10.56-8.57,19.35-19.1,19.42C70,58.11,61.32,49.57,61.27,38.77z M67.72,38.59c-0.03,7.16,5.64,12.95,12.72,13
		c7.18,0.05,13.05-5.74,13.06-12.9c0.02-7.1-5.72-12.84-12.86-12.87C73.5,25.78,67.76,31.46,67.72,38.59z"/>
	<path class="st0" d="M80.66,109.73c10.84,0.1,19.37,8.76,19.29,19.59c-0.08,10.6-8.91,19.19-19.62,19.09
		c-10.66-0.1-19.2-8.89-19.07-19.61C61.4,118.15,70.06,109.63,80.66,109.73z M80.63,116.18c-7.15-0.03-12.88,5.65-12.91,12.79
		c-0.03,7.15,5.65,12.95,12.74,13c7.16,0.05,13.04-5.77,13.05-12.93C93.52,121.94,87.78,116.21,80.63,116.18z"/>
	<path class="st0" d="M80.68,158.12c3.02,0,6.04-0.03,9.06,0.01c2.3,0.03,3.69,1.2,3.76,3.09c0.07,1.93-1.41,3.33-3.74,3.34
		c-6.1,0.04-12.2,0.04-18.3,0c-2.39-0.01-3.76-1.31-3.72-3.33c0.04-1.95,1.34-3.08,3.7-3.11C74.52,158.1,77.6,158.12,80.68,158.12z"
		/>
	<path class="st0" d="M80.59,171.04c2.08,0,4.16-0.04,6.24,0.01c2.06,0.05,3.32,1.21,3.38,3.04c0.07,1.9-1.21,3.32-3.29,3.36
		c-4.22,0.08-8.45,0.07-12.67,0c-2.03-0.04-3.43-1.57-3.34-3.36c0.09-1.76,1.44-3,3.44-3.04C76.43,171.01,78.51,171.04,80.59,171.04
		z"/>
	<path class="st0" d="M171.37,93.52c-0.79,1.05-1.28,2.29-2.14,2.66c-0.94,0.41-2.25,0.14-3.35-0.09c-0.53-0.11-0.94-0.79-1.39-1.23
		c-14.38-14.38-28.76-28.76-43.14-43.14c-0.49-0.49-1.02-0.96-1.4-1.53c-0.91-1.38-0.8-2.78,0.33-3.97
		c1.13-1.19,2.52-1.38,3.95-0.54c0.53,0.31,0.98,0.78,1.42,1.23c14.52,14.51,29.04,29.02,43.54,43.55
		C170,91.27,170.54,92.33,171.37,93.52z"/>
	<path class="st0" d="M171.3,74.18c-0.69,0.96-1.15,2.17-2,2.61c-0.86,0.44-2.13,0.25-3.18,0.07c-0.53-0.09-0.98-0.74-1.42-1.18
		c-8.11-8.1-16.21-16.21-24.31-24.31c-0.4-0.4-0.84-0.79-1.11-1.27c-0.78-1.33-0.72-2.69,0.34-3.84c1.11-1.21,2.48-1.42,3.94-0.62
		c0.38,0.21,0.71,0.52,1.02,0.83c8.38,8.36,16.76,16.73,25.1,25.12C170.31,72.23,170.65,73.14,171.3,74.18z"/>
	<path class="st0" d="M171.27,55.11c-0.74,0.86-1.32,2.1-2.25,2.46c-0.93,0.36-2.55,0.26-3.27-0.35c-2.44-2.08-4.67-4.41-6.86-6.76
		c-1.16-1.23-0.98-3.14,0.15-4.29c1.22-1.24,3.07-1.38,4.42-0.11c2.25,2.11,4.42,4.31,6.54,6.55
		C170.53,53.16,170.74,54.02,171.27,55.11z"/>
	<path class="st0" d="M38.65,160.89c-0.06,2.66-2.25,4.33-4.25,3.41c-4.62-2.12-9.15-4.43-13.65-6.79
		c-1.51-0.79-1.84-2.69-1.07-4.13c0.84-1.57,2.58-2.15,4.38-1.28c4.24,2.05,8.44,4.18,12.65,6.29c0.28,0.14,0.61,0.29,0.77,0.53
		C37.97,159.66,38.4,160.47,38.65,160.89z"/>
	<path class="st0" d="M83.76,83.91c0,1.13,0.07,2.27-0.02,3.4c-0.12,1.7-1.27,2.84-2.88,2.94c-1.75,0.11-3.16-0.7-3.31-2.4
		c-0.24-2.67-0.22-5.4,0.03-8.07c0.15-1.62,1.58-2.37,3.19-2.34c1.57,0.03,2.83,1.27,2.95,2.89C83.83,81.52,83.75,82.72,83.76,83.91
		C83.75,83.91,83.76,83.91,83.76,83.91z"/>
	<path class="st0" d="M83.75,38.61c0,1.2,0.07,2.4-0.02,3.59c-0.13,1.65-1.36,2.82-2.93,2.93c-1.53,0.11-3.15-0.9-3.28-2.51
		c-0.2-2.62-0.24-5.28,0.01-7.89c0.16-1.68,1.54-2.53,3.3-2.43c1.6,0.08,2.77,1.23,2.9,2.92C83.82,36.34,83.76,37.48,83.75,38.61z"
		/>
	<path class="st0" d="M83.75,129.04c0,1.2,0.08,2.4-0.02,3.58c-0.14,1.62-1.42,2.85-2.98,2.86c-1.62,0.01-3.02-0.76-3.17-2.38
		c-0.24-2.67-0.26-5.4-0.01-8.07c0.16-1.69,1.59-2.49,3.33-2.36c1.6,0.11,2.72,1.26,2.84,2.98c0.08,1.13,0.01,2.26,0.01,3.4
		C83.76,129.04,83.75,129.04,83.75,129.04z"/>
</g>
</svg>
