<?xml version="1.0" encoding="utf-8"?>
<!-- Generator: Adobe Illustrator 27.0.0, SVG Export Plug-In . SVG Version: 6.00 Build 0)  -->
<svg version="1.1" id="Capa_1" xmlns="http://www.w3.org/2000/svg" xmlns:xlink="http://www.w3.org/1999/xlink" x="0px" y="0px"
	 viewBox="0 0 200 200" style="enable-background:new 0 0 200 200;" xml:space="preserve">
<style type="text/css">
	.st0{fill:#222221;}
	.st1{fill:#55565A;}
	.st2{fill:#4C428D;}
	.st3{fill:#26B1DC;}
	.st4{fill:#F5E134;}
</style>
<g>
	<path class="st0" d="M196.87,124.63c-0.51,2.39-0.86,4.81-1.54,7.15c-6.32,21.73-28.04,31.95-47.2,27.63
		c-1.96-0.44-3.02-1.87-2.65-3.48c0.4-1.76,1.93-2.48,4.22-2c13.96,2.94,28.13-2.7,35.85-14.36c5.32-8.04,6.92-16.87,4.74-26.21
		c-3.34-14.28-6.66-28.57-10.49-42.72c-3.89-14.39-15.73-23.53-30.63-24.41c-2.06-0.12-4.12-0.19-6.28-0.29
		c-0.16,1.69-0.26,3.18-0.44,4.67c-0.97,7.73-7.07,13.65-14.89,13.76c-16.26,0.24-32.53,0.18-48.8,0.21c-2.3,0-3.45-1.08-3.4-2.89
		c0.04-1.8,1.3-2.76,3.55-2.77c15.51-0.04,31.02-0.05,46.53-0.14c8.02-0.05,12.04-4.53,11.52-12.94
		c-24.59-0.68-49.2-0.64-73.79-0.02c-0.94,4.67,0.84,8.89,4.78,11.53c1.78,1.2,2.31,2.66,1.49,4.12c-0.81,1.43-2.47,1.87-4.09,0.93
		c-4.37-2.51-6.98-6.27-7.76-11.26c-0.25-1.61-0.32-3.25-0.49-5.11c-4.89,0.01-9.78,0.04-14.5,1.57
		c-11.38,3.68-18.95,11.26-22.39,22.7c-4.45,14.78-8.1,29.77-10.91,44.95c-3.36,18.17,9.17,35.79,27.67,38.92
		c16.78,2.84,32.71-6.56,37.89-22.36c0.06-0.18,0.08-0.36,0.16-0.74c-5.15-1.67-8.99-4.89-10.89-10.09
		c-1.21-3.29-1.26-6.67-0.22-10.03c2.13-6.87,8.71-11.54,15.76-11.22c8.39,0.38,13.09,5.33,15.52,16.38c3.17,0,6.36,0,9.76,0
		c0.21-5.61,2.3-10.28,6.98-13.55c2.94-2.06,6.24-3.01,9.81-2.81c7.52,0.42,13.65,5.89,14.85,13.3c1.07,6.66-1.94,14.71-11.66,18.03
		c0.2,0.62,0.37,1.26,0.6,1.88c2.56,6.83,6.93,12.22,12.97,16.29c0.79,0.53,1.79,1.32,1.93,2.13c0.16,0.93-0.23,2.52-0.91,2.9
		c-0.89,0.51-2.55,0.56-3.43,0.04c-5.45-3.26-9.85-7.67-12.94-13.24c-1.49-2.68-2.46-5.64-3.78-8.42c-0.29-0.62-0.96-1.33-1.58-1.47
		c-4.85-1.09-8.47-3.79-10.84-8.11c-0.51-0.93-1.05-1.22-2.05-1.2c-3.28,0.05-6.56,0.05-9.84,0c-1.01-0.02-1.55,0.29-2.05,1.21
		c-2.37,4.33-5.99,7.02-10.84,8.11c-0.62,0.14-1.36,0.86-1.57,1.48c-5.27,15.34-15.86,24.76-31.83,27.23
		c-21.8,3.37-42.36-11.48-45.35-33.93c-0.95-7.13,0.51-13.97,2.11-20.75c2.9-12.25,5.88-24.49,9.3-36.6
		c4.62-16.36,18.76-27.38,35.7-28.05c28.61-1.14,57.24-1.19,85.86-0.41c5.67,0.15,11.41-0.03,16.98,0.85
		c16.03,2.55,26.78,11.82,31.66,27.26c4.8,15.2,8.42,30.72,11.29,46.41c0.17,0.92,0.35,1.84,0.53,2.76
		C196.87,119.83,196.87,122.23,196.87,124.63z M68.91,115.55c-0.01,5.69,4.5,10.22,10.17,10.22c5.63-0.01,10.25-4.64,10.2-10.24
		c-0.05-5.54-4.6-10.11-10.13-10.16C73.52,105.33,68.92,109.9,68.91,115.55z M131.09,115.58c0-5.66-4.59-10.23-10.22-10.2
		c-5.52,0.04-10.09,4.6-10.15,10.13c-0.06,5.59,4.56,10.25,10.18,10.26C126.57,125.78,131.09,121.26,131.09,115.58z"/>
	<path class="st0" d="M56.24,99.69c-1.21,7.39-5.17,11.34-11.41,11.48c-6.25,0.14-10.17-3.64-11.79-11.44
		c-1.01-0.18-2.07-0.3-3.1-0.57c-5.31-1.38-8.62-6.21-8.3-12.02c0.29-5.14,4.28-9.47,9.5-10.25c1.14-0.17,2.06-0.17,2.23-1.83
		c0.62-5.73,5.14-9.77,10.79-9.93c5.89-0.17,10.53,3.5,11.66,9.21c0.13,0.68,0.23,1.36,0.38,2.26c3.94,0.25,7.35,1.76,9.63,5.23
		c1.4,2.12,2.01,4.49,1.81,7.01C67.17,95,63.32,98.66,56.24,99.69z M27.29,88.16c0.01,3.11,2.14,5.4,5.38,5.73
		c1.06,0.11,2.14,0.03,3.21,0.1c1.79,0.12,2.73,1.07,2.87,2.86c0.09,1.19,0.07,2.4,0.22,3.58c0.39,3.06,2.61,5.04,5.6,5.07
		c3.03,0.03,5.41-2.05,5.78-5.13c0.12-1.06,0.05-2.14,0.1-3.21c0.1-2.1,1.09-3.07,3.17-3.19c1.38-0.08,2.79-0.04,4.12-0.33
		c2.59-0.57,4.29-2.87,4.28-5.52c-0.01-2.73-1.82-5.03-4.5-5.53c-1.17-0.22-2.38-0.23-3.57-0.28c-2.55-0.1-3.45-1.01-3.51-3.61
		c-0.02-0.88,0.02-1.77-0.07-2.64c-0.32-3.11-2.6-5.21-5.65-5.24c-3.1-0.03-5.34,1.94-5.76,5.09c-0.07,0.5-0.1,1-0.12,1.5
		c-0.2,4.53-0.45,4.78-4.88,4.93c-0.69,0.02-1.39,0.08-2.06,0.21C29.08,83.08,27.28,85.3,27.29,88.16z"/>
	<path class="st0" d="M100.19,90.96c-2.71,0-5.42,0.03-8.13-0.01c-4.35-0.07-7.79-3.29-8.03-7.46c-0.25-4.5,2.69-8.32,7.22-8.54
		c6.09-0.29,12.22-0.27,18.32-0.01c4.4,0.19,7.6,4.13,7.34,8.3c-0.27,4.42-3.69,7.65-8.23,7.7
		C105.86,90.99,103.02,90.96,100.19,90.96z M100.39,85.28c2.7,0,5.41-0.01,8.11,0c1.57,0.01,2.53-0.74,2.71-2.28
		c0.16-1.39-0.97-2.48-2.68-2.5c-5.41-0.05-10.81-0.04-16.22,0c-1.5,0.01-2.54,0.73-2.58,2.38c-0.04,1.49,0.95,2.36,2.75,2.39
		C95.1,85.31,97.74,85.28,100.39,85.28z"/>
	<path class="st0" d="M162.74,68.63c6.02,0.03,10.95,5,10.91,11c-0.04,6.03-5,10.94-11.01,10.91c-6.04-0.03-10.88-4.94-10.86-11.01
		C151.8,73.46,156.69,68.6,162.74,68.63z M157.47,79.5c-0.03,2.93,2.3,5.34,5.2,5.35c2.88,0.01,5.3-2.41,5.28-5.3
		c-0.01-2.83-2.3-5.17-5.14-5.24C159.91,74.24,157.5,76.58,157.47,79.5z"/>
	<path class="st0" d="M156.48,96.66c0.02,6.09-4.8,10.95-10.87,10.96c-6.07,0.02-10.93-4.82-10.96-10.9
		c-0.03-6.04,4.87-10.98,10.89-11C151.58,85.7,156.47,90.59,156.48,96.66z M150.8,96.78c0.04-2.92-2.29-5.34-5.18-5.37
		c-2.87-0.03-5.27,2.38-5.27,5.29c0,2.88,2.24,5.17,5.09,5.23C148.4,102,150.75,99.73,150.8,96.78z"/>
</g>
</svg>
