<?xml version="1.0" encoding="utf-8"?>
<!-- Generator: Adobe Illustrator 27.0.0, SVG Export Plug-In . SVG Version: 6.00 Build 0)  -->
<svg version="1.1" id="Capa_1" xmlns="http://www.w3.org/2000/svg" xmlns:xlink="http://www.w3.org/1999/xlink" x="0px" y="0px"
	 viewBox="0 0 200 200" style="enable-background:new 0 0 200 200;" xml:space="preserve">
<style type="text/css">
	.st0{fill:#222221;}
	.st1{fill:#55565A;}
	.st2{fill:#4C428D;}
	.st3{fill:#26B1DC;}
	.st4{fill:#F5E134;}
</style>
<g>
	<path class="st0" d="M62.54,3.13c18.29,0,36.58,0,54.87,0c0.68,0.63,1.38,1.24,2.04,1.89c6.87,6.86,13.75,13.72,20.58,20.62
		c0.9,0.91,1.58,2.04,2.5,3.25c2.81,0,5.9-0.03,8.98,0.01c5.54,0.07,9.69,4.12,9.81,9.63c0.08,3.66,0.02,7.31,0.03,10.97
		c0,1.68,0,3.36,0,5.44c3.28,0,6.31-0.21,9.3,0.04c14.65,1.22,26.19,13.81,26.21,28.52c0.02,18.35,0.01,36.7,0,55.05
		c0,0.88-0.01,1.78-0.19,2.63c-1.36,6.45-6.49,10.55-13.32,10.58c-9.9,0.04-19.8,0.01-29.7,0.01c-0.73,0-1.47,0-2.28,0
		c0.07,0.83,0.07,1.4,0.16,1.96c2.08,12.4,4.18,24.81,6.26,37.21c0.55,3.28-1.61,5.92-4.93,5.93c-35.25,0.01-70.5,0.01-105.75,0
		c-3.22,0-5.43-2.6-4.91-5.77c1.67-10.11,3.4-20.22,5.1-30.33c0.49-2.93,0.93-5.88,1.42-9c-1.08,0-1.83,0-2.58,0
		c-9.84,0-19.68,0.04-29.51-0.02c-5.51-0.03-9.68-2.44-12.24-7.39c-0.51-0.99-0.84-2.07-1.25-3.11c0-20.43,0-40.87,0-61.3
		c0.12-0.27,0.31-0.54,0.36-0.83c1.28-7.53,4.98-13.63,10.98-18.32c5.98-4.67,12.88-6.34,20.34-6.11c1.23,0.04,2.46,0.01,3.83,0.01
		c0-5.33-0.02-10.36,0.01-15.39c0.04-6.47,4.03-10.4,10.54-10.42c2.88-0.01,5.76,0,8.81,0c0-5.85,0.18-11.51-0.06-17.16
		C57.77,7.8,58.96,4.91,62.54,3.13z M59.17,129.19c-3.4,20.43-6.78,40.75-10.18,61.13c34.07,0,67.96,0,101.99,0
		c-3.4-20.44-6.79-40.76-10.18-61.13C113.58,129.19,86.48,129.19,59.17,129.19z M38.65,145.06c0-0.9,0-1.58,0-2.26
		c0-6.37-0.01-12.74,0.01-19.11c0-1.26-0.02-2.55,0.25-3.76c1.43-6.45,6.56-10.31,13.71-10.32c31.59-0.01,63.19,0.04,94.78-0.04
		c8.8-0.02,14.29,6.59,14,13.95c-0.25,6.49-0.05,12.99-0.05,19.48c0,0.66,0,1.32,0,2.1c7.43,0,14.55,0.01,21.67,0
		c4.94-0.01,7.39-2.48,7.39-7.47c0.01-14.06,0-28.13,0-42.19c0-0.6,0-1.2,0-1.76c-60.42,0-120.56,0-180.83,0c0,6.61,0,13.09,0,19.58
		c0,8.32-0.02,16.65,0.01,24.97c0.01,3.69,2.3,6.71,5.52,6.77C22.86,145.16,30.61,145.06,38.65,145.06z M190.22,87.02
		c1.6-14.45-9.44-25.67-22.13-25.67c-45.4,0-90.79-0.04-136.19,0.04c-8.66,0.01-15.14,4.2-19.45,11.63c-2.5,4.3-3.2,9.02-2.76,14.01
		C69.96,87.02,130.03,87.02,190.22,87.02z M112.88,9.69c-16.23,0-32.21,0-48.28,0c0,15.01,0,29.92,0,44.86c23.66,0,47.2,0,70.79,0
		c0-7.48,0-14.82,0-22.31c-5.03,0-9.94,0.01-14.84,0c-4.76-0.01-7.66-2.91-7.67-7.64C112.87,19.69,112.88,14.78,112.88,9.69z
		 M154.87,144.96c0-7.3,0.01-14.48,0-21.65c-0.01-4.47-2.57-7.07-7.01-7.07c-31.91-0.01-63.81-0.01-95.72,0
		c-4.44,0-7,2.59-7.01,7.06c-0.01,6.68-0.01,13.37,0,20.05c0,0.55,0.06,1.09,0.11,1.76c1.07,0,2.02-0.08,2.94,0.02
		c1.35,0.14,1.79-0.33,1.99-1.72c0.69-4.79,1.53-9.56,2.42-14.32c0.92-4.92,2.88-6.5,7.87-6.51c26.36-0.01,52.72,0,79.07,0
		c0.44,0,0.88,0,1.32,0.02c3.6,0.21,5.81,2.17,6.44,5.73c0.75,4.27,1.48,8.55,2.2,12.83C150.21,145.43,150.19,145.44,154.87,144.96z
		 M57.9,54.61c0-6.36,0-12.62,0-19.12c-3.08,0-6.15-0.05-9.22,0.02c-2.41,0.05-3.52,1.25-3.54,3.69c-0.03,4.09-0.01,8.18-0.01,12.27
		c0,1.04,0,2.09,0,3.15C49.53,54.61,53.66,54.61,57.9,54.61z M154.84,54.6c0-5.48,0.11-10.88-0.1-16.26
		c-0.04-0.93-1.38-2.51-2.22-2.58c-3.46-0.29-6.95-0.12-10.39-0.12c0,6.43,0,12.69,0,18.97C146.4,54.6,150.53,54.6,154.84,54.6z
		 M119.4,14.97c0,3.15-0.03,6.46,0.04,9.76c0.01,0.32,0.58,0.9,0.9,0.91c3.31,0.07,6.62,0.04,9.78,0.04
		C126.54,22.1,122.98,18.55,119.4,14.97z"/>
	<path class="st0" d="M162.99,70.89c1.51,0,3.02-0.03,4.53,0.01c2.03,0.05,3.49,1.36,3.57,3.15c0.08,1.8-1.3,3.29-3.34,3.34
		c-3.21,0.08-6.42,0.08-9.63-0.01c-2.01-0.05-3.24-1.38-3.24-3.19c-0.01-1.85,1.37-3.22,3.39-3.29
		C159.84,70.84,161.42,70.89,162.99,70.89z"/>
	<path class="st0" d="M137.26,70.89c1.51,0,3.02-0.04,4.53,0.01c2.02,0.06,3.45,1.43,3.47,3.24c0.02,1.8-1.37,3.21-3.43,3.25
		c-3.14,0.07-6.29,0.08-9.43,0c-2.12-0.05-3.35-1.38-3.31-3.3c0.04-1.88,1.36-3.14,3.46-3.19
		C134.11,70.85,135.68,70.88,137.26,70.89z"/>
</g>
</svg>
