<?xml version="1.0" encoding="utf-8"?>
<!-- Generator: Adobe Illustrator 27.0.0, SVG Export Plug-In . SVG Version: 6.00 Build 0)  -->
<svg version="1.1" id="Capa_1" xmlns="http://www.w3.org/2000/svg" xmlns:xlink="http://www.w3.org/1999/xlink" x="0px" y="0px"
	 viewBox="0 0 200 200" style="enable-background:new 0 0 200 200;" xml:space="preserve">
<style type="text/css">
	.st0{fill:#222221;}
	.st1{fill:#55565A;}
	.st2{fill:#4C428D;}
	.st3{fill:#26B1DC;}
	.st4{fill:#F5E134;}
</style>
<g>
	<path class="st0" d="M196.87,151.45c-0.22,0.64-0.46,1.28-0.67,1.93c-1.76,5.58-6.52,9.41-12.35,9.89
		c-1.07,0.09-2.14,0.12-3.21,0.12c-18.6,0.01-37.21,0.01-55.81,0.01c-0.8,0-1.61,0-2.85,0c1.57,4.93,2.58,9.74,4.61,14.06
		c2.16,4.61,6.43,6.75,11.61,6.75c6.31,0,12.61,0,18.92,0c3.01,0,4.27,0.81,4.31,2.75c0.04,2.02-1.3,2.93-4.36,2.93
		c-38.03,0-76.06,0-114.08,0c-3.1,0-4.43-0.87-4.43-2.87c0-2,1.28-2.81,4.44-2.81c6.12,0,12.23,0.01,18.35,0
		c6.9-0.02,11.57-3.54,13.48-10.15c0.99-3.44,1.96-6.88,3.04-10.66c-1.04,0-1.83,0-2.63,0c-18.79,0-37.59-0.01-56.38,0.01
		c-3.27,0-6.42-0.43-9.2-2.31c-4.36-2.94-6.52-7.06-6.52-12.31c-0.01-31.16,0-62.32,0-93.48c0-10.03-0.01-20.06,0-30.09
		c0.01-9.11,5.93-15.1,14.99-15.1c54.55-0.01,109.1-0.01,163.65,0c7.8,0,12.77,3.87,14.81,11.43c0.05,0.17,0.19,0.31,0.29,0.47
		C196.87,65.16,196.87,108.3,196.87,151.45z M191.2,123.53c0-0.82,0-1.56,0-2.3c0-31.85,0-63.7,0-95.54c0-6.64-3.23-9.9-9.82-9.9
		c-54.29,0-108.58,0-162.87,0c-6.37,0-9.7,3.31-9.7,9.64c0,31.97,0,63.95,0,95.92c0,0.69,0,1.37,0,2.18
		C69.63,123.53,130.32,123.53,191.2,123.53z M8.84,129.41c0,7.04-0.14,13.84,0.05,20.64c0.11,3.92,3.4,7.04,7.3,7.51
		c1.06,0.13,2.14,0.15,3.21,0.15c53.73,0.01,107.46,0.01,161.19,0c0.76,0,1.52,0.01,2.27-0.05c5.08-0.37,8.3-3.81,8.33-8.93
		c0.03-4.98,0.01-9.97,0.01-14.95c0-1.43,0-2.86,0-4.38C130.32,129.41,69.68,129.41,8.84,129.41z M124.38,184.12
		c-3.47-3.46-4.46-7.64-5.6-11.77c-0.67-2.43-1.46-4.82-2.06-7.26c-0.3-1.22-0.77-1.74-2.14-1.73c-9.7,0.06-19.4,0.06-29.1,0
		c-1.32-0.01-1.79,0.44-2.2,1.66c-2.17,6.41-2.55,13.51-7.52,19.09C92.03,184.12,107.93,184.12,124.38,184.12z"/>
	<path class="st0" d="M20.16,112.2c53.28,0,106.35,0,159.55,0c0-28.33,0-56.6,0-84.96c-53.16,0-106.23,0-159.55,0
		c0,0.71,0,1.39,0,2.06c0,11.1,0,22.2,0,33.3c0,0.63,0.06,1.28-0.07,1.89c-0.32,1.47-1.27,2.33-2.8,2.31
		c-1.53-0.02-2.45-0.89-2.75-2.37c-0.1-0.49-0.05-1.01-0.05-1.51c0-12.49,0-24.98,0-37.46c0-3.17,0.82-3.99,4.06-3.99
		c54.3,0,108.59,0,162.89,0c3.32,0,4.09,0.79,4.09,4.14c0,29.39,0,58.78,0,88.17c0,3.34-0.8,4.19-4.09,4.19
		c-54.3,0.01-108.59,0.01-162.89,0c-3.21,0-4.06-0.86-4.06-4.02c0-12.49,0-24.98,0-37.46c0-0.38-0.02-0.76,0.01-1.13
		c0.14-1.66,1.24-2.75,2.78-2.77c1.54-0.02,2.7,1.05,2.86,2.68c0.05,0.56,0.02,1.13,0.02,1.7c0,10.97,0,21.95,0,32.92
		C20.16,110.58,20.16,111.27,20.16,112.2z"/>
	<path class="st0" d="M100.06,135.02c4.74,0.04,8.49,3.86,8.42,8.59c-0.07,4.74-3.91,8.46-8.64,8.37c-4.65-0.09-8.34-3.85-8.33-8.5
		C91.53,138.75,95.33,134.98,100.06,135.02z M102.78,143.53c0.02-1.55-1.12-2.75-2.66-2.81c-1.63-0.07-2.89,1.13-2.91,2.75
		c-0.01,1.55,1.12,2.75,2.66,2.81C101.5,146.35,102.77,145.15,102.78,143.53z"/>
</g>
</svg>
