<?xml version="1.0" encoding="utf-8"?>
<!-- Generator: Adobe Illustrator 27.0.0, SVG Export Plug-In . SVG Version: 6.00 Build 0)  -->
<svg version="1.1" id="Capa_1" xmlns="http://www.w3.org/2000/svg" xmlns:xlink="http://www.w3.org/1999/xlink" x="0px" y="0px"
	 viewBox="0 0 200 200" style="enable-background:new 0 0 200 200;" xml:space="preserve">
<style type="text/css">
	.st0{fill:#222221;}
	.st1{fill:#55565A;}
	.st2{fill:#4C428D;}
	.st3{fill:#26B1DC;}
	.st4{fill:#F5E134;}
</style>
<g>
	<g id="XMLID_00000073722985710893945410000003434388005162684804_">
		<path class="st0" d="M100,200C44.86,200,0,155.14,0,100S44.86,0,100,0c55.14,0,100,44.86,100,100S155.14,200,100,200z M100,7.58
			C49.04,7.58,7.58,49.04,7.58,100s41.46,92.42,92.42,92.42h0c50.96,0,92.42-41.46,92.42-92.42S150.96,7.58,100,7.58z"/>
	</g>
	<path id="XMLID_00000090973763147894162620000018236319855641542555_" class="st0" d="M85.34,158.15h23.42V99.51h16.34l1.74-19.64
		h-18.08c0,0,0-7.33,0-11.18c0-4.63,0.93-6.46,5.41-6.46c3.6,0,12.68,0,12.68,0V41.85c0,0-13.36,0-16.22,0
		c-17.43,0-25.28,7.68-25.28,22.37c0,12.8,0,15.66,0,15.66H73.16v19.88h12.18V158.15z"/>
</g>
</svg>
