<?xml version="1.0" encoding="utf-8"?>
<!-- Generator: Adobe Illustrator 27.0.0, SVG Export Plug-In . SVG Version: 6.00 Build 0)  -->
<svg version="1.1" id="Capa_1" xmlns="http://www.w3.org/2000/svg" xmlns:xlink="http://www.w3.org/1999/xlink" x="0px" y="0px"
	 viewBox="0 0 200 200" style="enable-background:new 0 0 200 200;" xml:space="preserve">
<style type="text/css">
	.st0{fill:#222221;}
	.st1{fill:#55565A;}
	.st2{fill:#4C428D;}
	.st3{fill:#26B1DC;}
	.st4{fill:#F5E134;}
</style>
<g>
	<g id="XMLID_00000074400582186429378640000009793608111374429094_">
		<path class="st0" d="M100,200C44.86,200,0,155.14,0,100C0,44.86,44.86,0,100,0c55.14,0,100,44.86,100,100
			C200,155.14,155.14,200,100,200z M100,7.58C49.04,7.58,7.58,49.04,7.58,100c0,50.96,41.46,92.42,92.42,92.42
			c50.96,0,92.42-41.46,92.42-92.42C192.42,49.04,150.96,7.58,100,7.58z"/>
	</g>
	<g id="XMLID_00000153673245646252728780000002990877450069348510_">
		<path id="XMLID_00000088092371401727828060000002042590215587792003_" class="st0" d="M100,56.75c14.09,0,15.75,0.05,21.32,0.31
			c5.14,0.23,7.94,1.09,9.8,1.82c2.46,0.96,4.22,2.1,6.07,3.95c1.85,1.85,2.99,3.6,3.95,6.07c0.72,1.86,1.58,4.65,1.82,9.8
			c0.25,5.56,0.31,7.23,0.31,21.32s-0.06,15.75-0.31,21.32c-0.24,5.14-1.09,7.94-1.82,9.79c-0.96,2.46-2.1,4.22-3.95,6.07
			c-1.85,1.85-3.6,2.99-6.07,3.95c-1.86,0.72-4.65,1.58-9.8,1.82c-5.56,0.25-7.23,0.31-21.32,0.31s-15.75-0.05-21.32-0.31
			c-5.14-0.23-7.94-1.09-9.79-1.82c-2.46-0.96-4.22-2.1-6.07-3.95c-1.85-1.85-2.99-3.6-3.95-6.07c-0.72-1.86-1.58-4.65-1.82-9.79
			c-0.25-5.56-0.31-7.23-0.31-21.32s0.05-15.75,0.31-21.32c0.24-5.14,1.1-7.94,1.82-9.8c0.96-2.46,2.1-4.22,3.95-6.07
			c1.85-1.85,3.6-2.99,6.07-3.95c1.86-0.72,4.65-1.58,9.79-1.82C84.25,56.81,85.92,56.75,100,56.75 M100,47.25
			c-14.33,0-16.12,0.06-21.75,0.32c-5.61,0.26-9.45,1.15-12.8,2.45c-3.47,1.35-6.41,3.15-9.34,6.08c-2.93,2.93-4.74,5.88-6.08,9.34
			c-1.3,3.36-2.2,7.19-2.45,12.8c-0.26,5.63-0.32,7.42-0.32,21.75c0,14.33,0.06,16.12,0.32,21.75c0.26,5.61,1.15,9.45,2.45,12.8
			c1.35,3.47,3.15,6.41,6.08,9.34c2.93,2.93,5.87,4.74,9.34,6.08c3.36,1.3,7.19,2.2,12.8,2.45c5.63,0.26,7.42,0.32,21.75,0.32
			c14.33,0,16.12-0.06,21.75-0.32c5.62-0.26,9.45-1.15,12.8-2.45c3.47-1.35,6.41-3.15,9.34-6.08c2.93-2.93,4.74-5.88,6.08-9.34
			c1.3-3.36,2.2-7.19,2.45-12.8c0.26-5.63,0.32-7.42,0.32-21.75c0-14.33-0.06-16.12-0.32-21.75c-0.26-5.61-1.15-9.45-2.45-12.8
			c-1.35-3.47-3.15-6.41-6.08-9.34c-2.93-2.93-5.87-4.74-9.34-6.08c-3.36-1.3-7.19-2.2-12.8-2.45
			C116.12,47.31,114.33,47.25,100,47.25"/>
		<path id="XMLID_00000130641030178564826140000016429308663380832186_" class="st0" d="M100,72.91
			c-14.96,0-27.09,12.13-27.09,27.09c0,14.96,12.13,27.09,27.09,27.09c14.96,0,27.09-12.13,27.09-27.09
			C127.09,85.04,114.96,72.91,100,72.91 M100,117.58c-9.71,0-17.58-7.87-17.58-17.58c0-9.71,7.87-17.58,17.58-17.58
			s17.58,7.87,17.58,17.58C117.58,109.71,109.71,117.58,100,117.58"/>
		<path id="XMLID_00000158726488111802582760000010433602029130605236_" class="st0" d="M134.49,71.84c0,3.5-2.83,6.33-6.33,6.33
			c-3.5,0-6.33-2.84-6.33-6.33c0-3.5,2.83-6.33,6.33-6.33C131.66,65.51,134.49,68.35,134.49,71.84"/>
	</g>
</g>
</svg>
