<?xml version="1.0" encoding="utf-8"?>
<!-- Generator: Adobe Illustrator 27.0.0, SVG Export Plug-In . SVG Version: 6.00 Build 0)  -->
<svg version="1.1" id="Capa_1" xmlns="http://www.w3.org/2000/svg" xmlns:xlink="http://www.w3.org/1999/xlink" x="0px" y="0px"
	 viewBox="0 0 200 200" style="enable-background:new 0 0 200 200;" xml:space="preserve">
<style type="text/css">
	.st0{fill:#222221;}
	.st1{fill:#55565A;}
	.st2{fill:#4C428D;}
	.st3{fill:#26B1DC;}
	.st4{fill:#F5E134;}
</style>
<path class="st0" d="M150.96,14.05C134.07,3.75,115.51-1,95.8,0.14C60.18,2.2,32.79,18.66,14.09,49.01
	C2.83,67.3-1.45,87.46,0.43,108.84c1.51,17.24,7.15,33.09,17.02,47.35c1.19,1.71,1.43,3.12,0.73,5.14
	c-3.75,10.8-7.32,21.66-10.95,32.51c-0.18,0.53-0.33,1.07-0.59,1.91c5.7-1.82,11.12-3.54,16.54-5.27
	c6.69-2.14,13.37-4.25,20.04-6.46c1.3-0.43,2.29-0.29,3.43,0.45c12.17,7.8,25.45,12.61,39.76,14.6c2.83,0.39,5.68,0.65,8.51,0.96
	c3.65,0,7.29,0,10.94,0c3.79-0.51,7.61-0.89,11.37-1.55c22.77-4.03,41.9-14.75,57.32-31.92c14.43-16.07,22.6-35.02,24.98-56.47
	c0.16-1.41,0.32-2.81,0.48-4.22c0-3.91,0-7.81,0-11.72c-0.51-3.79-0.85-7.6-1.56-11.35C192.84,52.82,176.92,29.88,150.96,14.05z
	 M140.87,154.69c-1.52,0.53-3.15,0.81-4.75,1.08c-1.08,0.18-2.21,0.15-3.31,0.21c-0.04,0.16-0.08,0.31-0.11,0.47
	c-4.49-0.98-9.07-1.67-13.45-2.98c-12.84-3.84-25.03-9.09-35.72-17.42c-9.98-7.79-18.55-16.91-26.06-27.05
	c-4.45-6.01-8.8-12.09-11.78-19.03c-4.05-9.44-5.22-19-1.56-28.83c1.86-4.98,4.8-9.29,9-12.52c4.58-3.52,9.95-3.44,15.28-2.2
	c1.04,0.24,2.16,1.53,2.64,2.6c2.96,6.64,5.75,13.37,8.6,20.06c0.4,0.96,0.7,1.97,1.21,2.87c1.9,3.36,0.93,6.25-1.37,8.93
	c-1.86,2.17-3.8,4.28-5.67,6.45c-2.34,2.71-2.44,3.98-0.59,6.99c9.18,15.02,21.42,26.55,37.89,33.27c4.63,1.89,6.78,1.38,9.83-2.51
	c2.01-2.56,3.9-5.2,5.84-7.81c2.53-3.41,4.77-4.13,8.59-2.35c7.48,3.48,14.88,7.13,22.33,10.68c1.89,0.9,2.61,2.31,2.55,4.37
	C159.84,142.99,155.01,149.8,140.87,154.69z"/>
</svg>
