<?xml version="1.0" encoding="utf-8"?>
<!-- Generator: Adobe Illustrator 27.0.0, SVG Export Plug-In . SVG Version: 6.00 Build 0)  -->
<svg version="1.1" id="Capa_1" xmlns="http://www.w3.org/2000/svg" xmlns:xlink="http://www.w3.org/1999/xlink" x="0px" y="0px"
	 viewBox="0 0 200 200" style="enable-background:new 0 0 200 200;" xml:space="preserve">
<style type="text/css">
	.st0{fill:#222221;}
	.st1{fill:#55565A;}
	.st2{fill:#4C428D;}
	.st3{fill:#26B1DC;}
	.st4{fill:#F5E134;}
</style>
<g>
	<path class="st0" d="M175.19,29.43c-25.06-0.01-50.13-0.02-75.19-0.01c-25.06,0-50.13,0-75.19,0.01c-5.17,0-9.8,1.65-13.98,5.15
		c0.84,0.53,1.52,0.98,2.23,1.41C42.05,53.62,71.04,71.24,100,88.91c28.96-17.67,57.95-35.29,86.94-52.93
		c0.7-0.43,1.39-0.87,2.23-1.41C184.99,31.08,180.36,29.43,175.19,29.43z"/>
	<path class="st0" d="M177.95,61.75c-24.23,14.72-48.46,29.43-72.64,44.23c-1.86,1.14-3.59,1.69-5.31,1.68
		c-1.72,0.01-3.45-0.54-5.31-1.68c-24.18-14.8-48.42-29.51-72.64-44.23C14.71,57.29,7.35,52.89,0,48.46c0,34.5,0,69.01,0,103.51
		c0.09,0.16,0.24,0.32,0.28,0.5C2.7,164,10.72,170.58,22.5,170.58c25.83,0.01,51.67-0.01,77.5-0.01c25.83,0,51.67,0.01,77.5,0.01
		c11.78,0,19.8-6.59,22.22-18.12c0.04-0.18,0.19-0.33,0.28-0.5c0-34.5,0-69.01,0-103.51C192.65,52.89,185.29,57.29,177.95,61.75z"/>
</g>
</svg>
