<?xml version="1.0" encoding="utf-8"?>
<!-- Generator: Adobe Illustrator 27.0.0, SVG Export Plug-In . SVG Version: 6.00 Build 0)  -->
<svg version="1.1" id="Capa_1" xmlns="http://www.w3.org/2000/svg" xmlns:xlink="http://www.w3.org/1999/xlink" x="0px" y="0px"
	 viewBox="0 0 200 200" style="enable-background:new 0 0 200 200;" xml:space="preserve">
<style type="text/css">
	.st0{fill:#222221;}
	.st1{fill:#55565A;}
	.st2{fill:#4C428D;}
	.st3{fill:#26B1DC;}
	.st4{fill:#F5E134;}
</style>
<path class="st0" d="M186.33,136.61c-1.9-6.07-6.99-9.68-14.08-9.73c-11.14-0.08-21.9-2.09-32.28-6.06
	c-6.05-2.31-11.34-1.35-16.22,2.86c-4.89,4.22-9.93,8.27-14.85,12.46c-1.04,0.89-1.75,0.89-2.92,0.15
	c-17.18-10.99-31.25-25.07-42.25-42.25c-0.77-1.21-0.63-1.9,0.22-2.91c4.46-5.27,8.88-10.58,13.26-15.9
	c3.4-4.13,4.33-8.82,2.62-13.89c-3.77-11.17-5.95-22.6-6.38-34.4c-0.31-8.53-6.23-13.95-14.8-14c-5.07-0.03-10.14,0-15.2,0
	c0,0.01,0,0.03,0,0.04c-5.64,0-11.28-0.13-16.91,0.03c-6.91,0.21-12.65,5.96-13.22,12.85c-1.04,12.77-0.26,25.44,2.23,37.99
	c7.4,37.28,25.99,67.87,55.94,91.18c29.7,23.13,63.54,33.9,101.3,31.75c8.73-0.5,14.3-6.21,14.31-14.93
	c0.02-10.13,0.01-20.27-0.07-30.4C187.03,139.84,186.82,138.16,186.33,136.61z"/>
</svg>
