<?xml version="1.0" encoding="utf-8"?>
<!-- Generator: Adobe Illustrator 27.0.0, SVG Export Plug-In . SVG Version: 6.00 Build 0)  -->
<svg version="1.1" id="Capa_1" xmlns="http://www.w3.org/2000/svg" xmlns:xlink="http://www.w3.org/1999/xlink" x="0px" y="0px"
	 viewBox="0 0 200 200" style="enable-background:new 0 0 200 200;" xml:space="preserve">
<style type="text/css">
	.st0{fill:#222221;}
	.st1{fill:#55565A;}
	.st2{fill:#4C428D;}
	.st3{fill:#26B1DC;}
	.st4{fill:#F5E134;}
</style>
<path class="st0" d="M100.34,14.11c5.4,2.91,10.79,5.85,16.21,8.73c19.49,10.35,38.98,20.7,58.49,31.01
	c1.16,0.61,1.67,1.27,1.67,2.68c-0.05,29.06-0.05,58.13,0,87.19c0,1.38-0.46,2.07-1.64,2.69c-24.54,12.99-49.06,26.01-73.58,39.05
	c-1.04,0.55-1.83,0.6-2.9,0.03c-24.52-13.06-49.05-26.08-73.6-39.07c-1.24-0.66-1.69-1.39-1.69-2.83c0.05-29.01,0.05-58.01,0-87.02
	c0-1.38,0.46-2.06,1.64-2.68C49.3,40.99,73.63,28.06,97.96,15.14c0.58-0.31,1.13-0.68,1.7-1.03
	C99.89,14.11,100.11,14.11,100.34,14.11z M103.45,176.5c0.63-0.29,0.98-0.43,1.32-0.6c21.27-11.29,42.54-22.59,63.83-33.84
	c1.07-0.57,1.3-1.24,1.3-2.35c-0.03-25.08-0.02-50.16-0.02-75.24c0-0.54,0-1.08,0-1.86c-0.75,0.37-1.3,0.61-1.83,0.89
	C146.98,74.67,125.93,85.86,104.84,97c-1.13,0.6-1.41,1.28-1.41,2.48c0.03,25.02,0.02,50.05,0.02,75.07
	C103.45,175.1,103.45,175.65,103.45,176.5z M30.13,62.52c0,0.9,0,1.46,0,2.02c0,25.02,0.01,50.05-0.04,75.07
	c0,1.31,0.42,1.95,1.54,2.55c21.08,11.15,42.14,22.34,63.21,33.52c0.47,0.25,0.97,0.45,1.63,0.76c0.03-0.54,0.08-0.91,0.08-1.28
	c0-25.36,0-50.72,0.03-76.08c0-1.09-0.46-1.56-1.33-2.02c-6.13-3.23-12.24-6.5-18.36-9.75c-0.42-0.22-0.87-0.39-1.54-0.69
	c0,10.17,0,20.09,0,30.12c-0.4-0.14-0.61-0.19-0.8-0.29c-7.45-3.96-14.88-7.95-22.36-11.86c-0.93-0.49-0.9-1.12-0.9-1.91
	c0-9.07-0.02-18.14,0.03-27.21c0.01-1.26-0.29-2-1.49-2.58c-3.07-1.49-6.05-3.14-9.06-4.73C37.31,66.33,33.87,64.5,30.13,62.52z
	 M165.9,56.91c-0.8-0.46-1.37-0.8-1.96-1.11c-6.91-3.67-13.83-7.31-20.71-11.04c-1.09-0.59-1.84-0.48-2.86,0.11
	c-16.53,9.71-33.08,19.38-49.62,29.05c-3.85,2.25-7.69,4.52-11.67,6.86c6.65,3.51,13.13,6.9,19.57,10.36
	c1.02,0.55,1.76,0.51,2.75-0.02c11.34-6.05,22.7-12.06,34.05-18.08C145.53,67.72,155.6,62.37,165.9,56.91z M34.06,56.88
	c6.53,3.45,12.82,6.73,19.05,10.11c1.21,0.66,2.06,0.55,3.2-0.1c20.17-11.46,40.36-22.88,60.54-34.31c0.47-0.26,0.91-0.57,1.53-0.96
	c-0.68-0.4-1.19-0.73-1.71-1c-5.14-2.71-10.3-5.38-15.41-8.16c-0.99-0.54-1.68-0.43-2.59,0.06c-17.4,9.28-34.81,18.53-52.22,27.79
	C42.42,52.45,38.38,54.59,34.06,56.88z M61.91,71.59c3.15,1.69,5.97,3.16,8.74,4.72c0.93,0.52,1.61,0.53,2.56-0.03
	c19.86-11.67,39.74-23.3,59.61-34.94c0.56-0.33,1.1-0.67,1.82-1.11c-2.55-1.37-4.9-2.54-7.16-3.87c-1.19-0.7-2.1-0.71-3.34,0
	C106.31,46.5,88.45,56.57,70.6,66.66C67.79,68.24,64.99,69.84,61.91,71.59z M68.35,105.42c0.15-0.27,0.25-0.36,0.25-0.46
	c0.02-7.04,0.03-14.08,0.01-21.12c0-0.38-0.21-0.96-0.5-1.12c-3.2-1.76-6.44-3.45-9.67-5.16c-0.15,0.27-0.24,0.36-0.24,0.46
	c-0.02,7.04-0.04,14.08-0.02,21.12c0,0.38,0.21,0.95,0.51,1.11C61.89,102.01,65.13,103.71,68.35,105.42z"/>
</svg>
