<?xml version="1.0" encoding="utf-8"?>
<!-- Generator: Adobe Illustrator 27.0.0, SVG Export Plug-In . SVG Version: 6.00 Build 0)  -->
<svg version="1.1" id="Capa_1" xmlns="http://www.w3.org/2000/svg" xmlns:xlink="http://www.w3.org/1999/xlink" x="0px" y="0px"
	 viewBox="0 0 200 200" style="enable-background:new 0 0 200 200;" xml:space="preserve">
<style type="text/css">
	.st0{fill:#222221;}
	.st1{fill:#55565A;}
	.st2{fill:#4C428D;}
	.st3{fill:#26B1DC;}
	.st4{fill:#F5E134;}
</style>
<g>
	<path class="st0" d="M136.97,22.43c0.32,0.12,0.63,0.27,0.95,0.36c4.87,1.4,8.27,5.44,8.34,10.51c0.13,10.1,0.06,20.2,0.04,30.3
		c0,1.63-0.98,2.59-2.37,2.54c-1.35-0.05-2.15-0.95-2.15-2.57c-0.01-9.59-0.01-19.19-0.01-28.78c0-5.22-2.6-7.82-7.81-7.82
		c-25.04,0-50.09,0-75.13,0c-2.32,0-2.32,0-2.32,2.27c0,5.91,0.01,11.82,0,17.72c-0.01,5.57-3.17,8.71-8.76,8.71
		c-6.01,0.01-12.02,0-18.03,0c-0.54,0-1.09,0-1.76,0c-0.04,0.8-0.1,1.45-0.1,2.09c0,35.95-0.01,71.9,0,107.86
		c0,4.72,2.69,7.38,7.44,7.38c32.97,0,65.95,0,98.92,0c4.88,0,7.54-2.69,7.56-7.62c0-0.76-0.03-1.52,0.03-2.27
		c0.09-1.32,0.9-2.05,2.15-2.11c1.2-0.06,1.99,0.64,2.29,1.81c1.85,7.35-3.71,14.7-11.24,14.71c-33.48,0.04-66.95,0.03-100.43,0
		c-6.45-0.01-11.23-4.96-11.24-11.57c-0.02-20.7-0.01-41.41-0.01-62.11c0-15.25,0.05-30.5-0.03-45.75
		c-0.02-3.89,1.28-7.02,4.03-9.73c6.84-6.73,13.62-13.52,20.35-20.35c2.43-2.47,4.93-4.75,8.41-5.59
		C83.04,22.43,110,22.43,136.97,22.43z M31.45,51.13c5.78,0,11.47,0.05,17.16-0.02c2.15-0.03,3.32-1.39,3.33-3.68
		c0.03-5.3,0.02-10.6,0-15.89c0-0.3-0.13-0.6-0.16-0.74C45.03,37.55,38.3,44.28,31.45,51.13z"/>
	<path class="st0" d="M128.19,135.34c-5.09-1.36-7.31-3.96-7.88-9.07c-0.23-2.03-1.42-3.23-3.25-3.99c-3.37-1.4-5.25-3.98-5.68-7.59
		c-0.23-1.97,0.19-3.84,1.27-5.49c1.34-2.06,1.23-3.97-0.02-6.07c-2.86-4.82-0.93-10.67,4.21-12.91c2.22-0.97,3.34-2.45,3.57-4.92
		c0.52-5.59,5.48-9.2,10.97-8.01c2.47,0.54,4.24-0.08,5.9-1.95c3.71-4.18,9.9-4.11,13.59,0.11c1.56,1.79,3.29,2.37,5.64,1.86
		c5.7-1.25,10.51,2.31,11.11,8.14c0.24,2.29,1.3,3.76,3.45,4.69c5.32,2.29,7.21,8.15,4.27,13.12c-1.19,2-1.21,3.8-0.02,5.81
		c2.98,5.04,1.06,10.9-4.34,13.21c-2.11,0.9-3.14,2.37-3.34,4.59c-0.37,4.18-2.64,6.91-6.62,8.1c-1.05,0.31-1.18,0.79-1.17,1.69
		c0.02,6.26,0.03,12.52,0,18.78c-0.01,3.02-1.65,5.08-4.33,5.23c-1.08,0.06-2.31-0.3-3.28-0.83c-2.39-1.31-4.69-2.78-6.96-4.27
		c-0.87-0.57-1.51-0.65-2.42-0.05c-2.23,1.47-4.56,2.8-6.81,4.23c-1.76,1.12-3.57,1.41-5.42,0.35c-1.79-1.03-2.45-2.69-2.44-4.71
		c0.03-6.11,0.01-12.22,0.01-18.33C128.19,136.52,128.19,135.97,128.19,135.34z M172.18,99.02c-0.09-2.54-1.08-3.99-3.01-4.77
		c-3.67-1.49-5.63-4.21-6.04-8.15c-0.36-3.47-2.6-5.05-6-4.29c-3.75,0.84-6.86-0.19-9.39-3.06c-2.28-2.59-5.17-2.61-7.41-0.05
		c-2.52,2.89-5.61,3.95-9.37,3.12c-3.53-0.78-5.81,0.95-6.12,4.51c-0.31,3.56-2.1,6.14-5.36,7.65c-3.78,1.74-4.54,4.03-2.53,7.6
		c1.73,3.06,1.73,6.15,0,9.22c-2.01,3.57-1.26,5.87,2.52,7.6c3.15,1.44,4.96,3.92,5.34,7.34c0.45,4.06,2.5,5.61,6.45,4.77
		c3.39-0.72,6.5,0.07,8.61,2.77c2.19,2.81,6.02,2.89,8.23,0.05c2.11-2.71,5.24-3.69,8.58-2.79c3.76,1.01,6.43-1.36,6.58-4.72
		c0.17-3.65,2.31-6.13,5.63-7.59c3.22-1.41,4.14-4.12,2.36-7.12c-1.96-3.3-1.95-6.57-0.01-9.88
		C171.72,100.44,171.98,99.51,172.18,99.02z M132.79,156.39c2.18-1.33,4.24-2.31,5.98-3.7c3.58-2.85,6.92-2.86,10.5-0.01
		c1.74,1.39,3.8,2.39,5.91,3.69c0-7.35,0-14.4,0-21.48c-1.66-0.17-2.95,0.38-3.84,1.56c-3.59,4.76-10.91,4.88-14.65-0.01
		c-0.93-1.22-2.26-1.76-3.89-1.56C132.79,141.98,132.79,148.97,132.79,156.39z"/>
	<path class="st0" d="M98.65,38.13c7.52,0,15.04,0,22.56,0c3.86,0,5.78,1.91,5.79,5.74c0.01,1.97,0.01,3.94,0,5.91
		c-0.01,3.98-1.95,5.9-5.98,5.91c-9.09,0.01-18.17,0-27.26,0c-1.21,0-2.42,0.03-3.63-0.01c-1.62-0.06-2.61-1.03-2.54-2.39
		c0.06-1.3,1.02-2.13,2.61-2.13c10.09-0.01,20.19-0.01,30.28-0.01c1.97,0,1.97,0,1.97-2c0-1.72-0.04-3.43,0.02-5.15
		c0.03-0.96-0.25-1.33-1.27-1.33c-15.04,0.03-30.08,0.02-45.12,0c-0.95,0-1.37,0.25-1.34,1.27c0.06,1.97,0.05,3.94,0,5.9
		c-0.03,1,0.38,1.35,1.34,1.31c1.06-0.05,2.12-0.03,3.18,0.01c1.31,0.05,2.04,0.81,2.21,2.06c0.16,1.16-0.74,2.31-2.03,2.39
		c-1.65,0.1-3.34,0.14-4.98-0.07c-2.49-0.32-4.15-2.25-4.22-4.78c-0.08-2.52-0.07-5.05-0.01-7.57c0.08-3.06,2.14-5.04,5.25-5.05
		C83.21,38.12,90.93,38.14,98.65,38.13z"/>
	<path class="st0" d="M71.67,109.36c9.39,0,18.77,0,28.16,0c0.55,0,1.29-0.15,1.62,0.13c0.66,0.57,1.38,1.33,1.56,2.13
		c0.26,1.11-0.58,1.89-1.65,2.18c-0.52,0.14-1.1,0.09-1.65,0.09c-18.62,0-37.24,0-55.86,0c-0.25,0-0.5,0.01-0.76,0
		c-1.63-0.05-2.67-0.93-2.68-2.27c-0.01-1.34,1.02-2.26,2.65-2.27c7.77-0.02,15.54-0.01,23.31-0.01
		C68.14,109.36,69.9,109.36,71.67,109.36z"/>
	<path class="st0" d="M71.7,97.91c-9.28,0-18.57,0-27.85,0c-0.5,0-1.02,0.03-1.51-0.04c-1.15-0.17-1.97-0.96-1.84-2.03
		c0.09-0.8,0.77-1.66,1.42-2.21c0.41-0.35,1.25-0.25,1.89-0.25c18.62-0.01,37.24-0.01,55.86,0c0.6,0,1.23-0.02,1.8,0.15
		c1.17,0.34,1.73,1.2,1.59,2.42c-0.14,1.15-0.84,1.8-1.98,1.94c-0.5,0.06-1.01,0.03-1.51,0.03C90.27,97.91,80.99,97.91,71.7,97.91z"
		/>
	<path class="st0" d="M71.86,125.34c9.28,0,18.57,0,27.85,0c0.6,0,1.37-0.15,1.77,0.15c0.65,0.49,1.49,1.3,1.48,1.96
		c-0.01,0.75-0.74,1.64-1.39,2.18c-0.41,0.35-1.25,0.23-1.9,0.23c-18.62,0.01-37.24,0.01-55.85,0.01c-0.25,0-0.51,0.01-0.76,0
		c-1.63-0.08-2.66-0.99-2.65-2.31c0.01-1.33,1.03-2.22,2.69-2.22c8.63-0.02,17.26-0.01,25.88-0.01
		C69.94,125.34,70.9,125.34,71.86,125.34z"/>
	<path class="st0" d="M71.84,77.44c9.23,0,18.47,0,27.7,0c0.6,0,1.22-0.02,1.81,0.1c1.07,0.21,1.66,0.93,1.71,2.01
		c0.06,1.15-0.47,1.96-1.59,2.27c-0.57,0.15-1.2,0.16-1.8,0.16c-18.62,0.01-37.23,0.01-55.85,0.01c-0.2,0-0.4,0-0.61,0
		c-1.76-0.07-2.82-0.93-2.81-2.3c0.01-1.37,1.06-2.24,2.83-2.24c6.81-0.01,13.62-0.01,20.43-0.01
		C66.4,77.44,69.12,77.44,71.84,77.44z"/>
	<path class="st0" d="M57.45,148.74c4.59,0,9.18-0.01,13.77,0c1.84,0,2.81,0.77,2.86,2.18c0.04,1.46-1.01,2.35-2.87,2.36
		c-9.33,0.01-18.66,0.01-27.99,0c-2.12,0-3.32-1.5-2.6-3.16c0.5-1.15,1.47-1.38,2.61-1.38C47.97,148.75,52.71,148.74,57.45,148.74z"
		/>
	<path class="st0" d="M143.94,87.17c10.47-0.04,19.04,8.41,19.1,18.83c0.05,10.64-8.42,19.19-19.03,19.2
		c-10.5,0-19.08-8.58-19.05-19.05C125,95.7,133.49,87.21,143.94,87.17z M144.04,91.72c-7.97-0.02-14.42,6.37-14.52,14.37
		c-0.09,7.96,6.46,14.55,14.48,14.55c7.99,0.01,14.46-6.4,14.49-14.37C158.53,98.22,152.09,91.74,144.04,91.72z"/>
</g>
</svg>
