<?xml version="1.0" encoding="utf-8"?>
<!-- Generator: Adobe Illustrator 27.0.0, SVG Export Plug-In . SVG Version: 6.00 Build 0)  -->
<svg version="1.1" id="Capa_1" xmlns="http://www.w3.org/2000/svg" xmlns:xlink="http://www.w3.org/1999/xlink" x="0px" y="0px"
	 viewBox="0 0 200 200" style="enable-background:new 0 0 200 200;" xml:space="preserve">
<style type="text/css">
	.st0{fill:#222221;}
	.st1{fill:#55565A;}
	.st2{fill:#4C428D;}
	.st3{fill:#26B1DC;}
	.st4{fill:#F5E134;}
</style>
<g>
	<path class="st0" d="M69.54,114.34c4.91-9.07,8.68-18.6,10.83-28.67c1.55-7.27,2.44-14.69,3.53-22.06
		c0.35-2.35,1.33-3.38,3.74-3.34c13.16,0.17,24.23,11.08,25.14,24.16c0.58,8.35-0.13,16.4-2.96,24.27
		c-0.08,0.23-0.09,0.48-0.16,0.86c0.85,0,1.61,0,2.37,0c17.16,0,34.32-0.04,51.48,0.02c9,0.03,15.14,8.29,12.64,16.84
		c-0.88,3-2.85,5.2-5.39,6.91c5.41,7.11,3.49,15.83-2.83,20.08c2.19,3.18,3.19,6.69,2.59,10.57c-0.6,3.93-2.67,6.96-5.53,9.09
		c0.99,2.65,2.35,5.09,2.77,7.69c1.19,7.22-4.55,14.05-11.85,14.51c-0.64,0.04-1.28,0.06-1.91,0.06c-23.28,0-46.57-0.02-69.85,0.02
		c-4.93,0.01-9.41-1.42-13.76-3.87c-0.89,1.88-2.5,2.14-4.31,2.14c-10.02-0.03-20.03,0.01-30.05-0.02
		c-7.42-0.02-11.76-4.39-11.77-11.8c-0.01-18.69-0.01-37.37,0-56.06c0-7.33,4.31-11.67,11.63-11.69
		c10.08-0.02,20.16-0.01,30.24,0.01C67.21,114.06,68.27,114.23,69.54,114.34z M90.02,66.27c-0.12,0.63-0.25,1.12-0.3,1.61
		c-2.22,19.9-8.14,38.57-18.55,55.75c-0.53,0.87-0.81,2.02-0.82,3.04c-0.08,5.8-0.04,11.61-0.04,17.41
		c0,13.07-0.02,26.15,0.04,39.22c0,0.76,0.35,1.88,0.91,2.21c4.61,2.74,9.47,4.34,15.01,4.3c22.2-0.16,44.4-0.07,66.6-0.07
		c1.02,0,2.05-0.01,3.05-0.14c3.58-0.48,6.2-3.56,6.14-7.15c-0.06-3.5-2.71-6.42-6.26-6.82c-1.33-0.15-2.67-0.13-4.01-0.2
		c-1.93-0.1-3.08-1.19-3.08-2.93c0-1.73,1.14-2.86,3.08-2.92c1.85-0.05,3.7,0,5.55-0.03c3.59-0.05,6.38-2.26,7.22-5.69
		c1.18-4.79-1.45-8.29-6.31-8.44c-1.02-0.03-2.04-0.06-3.06-0.14c-2.17-0.16-3.18-1.14-3.14-3.04c0.03-1.86,1.14-2.85,3.28-2.89
		c1.98-0.03,3.96,0.06,5.93-0.04c3.79-0.19,6.86-3.5,6.79-7.2c-0.08-3.77-3.17-6.84-7-6.94c-0.89-0.02-1.79-0.03-2.68-0.06
		c-2.24-0.08-3.38-1.12-3.35-3.05c0.03-1.84,1.14-2.86,3.27-2.92c1.98-0.05,3.96,0.03,5.93-0.05c3.65-0.14,6.61-3.15,6.73-6.79
		c0.15-4.19-3.06-7.39-7.51-7.39c-14.67-0.02-29.34-0.01-44.02-0.01c-4.47,0-8.93,0.01-13.4-0.01c-2.06-0.01-3.45-0.99-3.41-2.55
		c0.03-0.98,0.39-1.99,0.77-2.92c3.39-8.29,5.06-16.79,3.66-25.78c-0.55-3.55-1.64-6.81-3.79-9.67
		C99.94,69.61,95.58,67.03,90.02,66.27z M64.33,187.63c0.03-0.62,0.07-0.99,0.07-1.36c0-5.42,0-10.84,0-16.26
		c0-5.48,0-10.97,0-16.45c0-5.42-0.24-10.85,0.07-16.26c0.3-5.4-1.21-10.77-0.08-16.15c0.07-0.34-0.07-0.72-0.12-1.22
		c-0.68,0-1.25,0-1.81,0c-8.8,0-17.6-0.01-26.41,0c-4.11,0-5.78,1.68-5.78,5.82c-0.01,9.88,0,19.77,0,29.65c0,8.8-0.01,17.6,0,26.4
		c0,4.2,1.6,5.81,5.75,5.82c1.85,0.01,3.7,0,5.55,0C49.09,187.63,56.61,187.63,64.33,187.63z"/>
	<path class="st0" d="M96.83,4.65c1.17,1.24,2.24,1.96,2.75,2.97c1.65,3.3,3.02,6.74,4.65,10.05c0.34,0.7,1.26,1.38,2.03,1.55
		c3.48,0.77,7.01,1.35,10.51,2.02c1.34,0.26,2.67,0.63,3.09,2.17c0.43,1.57-0.32,2.63-1.47,3.64c-2.65,2.3-5.26,4.64-7.77,7.09
		c-0.57,0.56-0.97,1.64-0.9,2.43c0.29,3.62,0.89,7.21,1.14,10.83c0.08,1.15-0.25,2.96-1,3.37c-0.99,0.54-2.78,0.42-3.86-0.13
		c-3.07-1.54-5.99-3.39-8.89-5.23c-1.11-0.7-1.99-0.69-3.14-0.12c-3.25,1.62-6.57,3.09-9.82,4.71c-1.36,0.68-2.79,0.8-3.7-0.25
		c-0.65-0.75-0.91-2.21-0.72-3.24c0.68-3.69,1.67-7.32,2.4-11.01c0.14-0.71-0.13-1.77-0.61-2.3c-2.44-2.69-5.02-5.26-7.56-7.86
		c-0.9-0.92-1.74-2.03-0.96-3.19c0.64-0.95,1.76-1.98,2.82-2.18c3.63-0.66,7.33-0.91,10.99-1.46c0.72-0.11,1.6-0.73,1.97-1.37
		c1.79-3.16,3.35-6.44,5.16-9.59C94.49,6.57,95.58,5.87,96.83,4.65z M96.45,15.2c-1.2,2.3-2.33,4.28-3.3,6.35
		c-0.82,1.76-2.05,2.58-4,2.68c-2.29,0.11-4.57,0.47-7.27,0.78c1.89,1.87,3.36,3.46,4.98,4.89c1.69,1.49,2.08,3.21,1.54,5.33
		c-0.53,2.11-0.92,4.26-1.43,6.64c2.57-1.17,4.88-2.1,7.06-3.27c1.37-0.74,2.48-0.66,3.72,0.15c2.01,1.31,4.07,2.55,6.4,4
		c-0.38-2.68-0.68-5.01-1.03-7.32c-0.3-1.98,0.11-3.59,1.85-4.85c1.78-1.29,3.42-2.78,5.4-4.41c-2.56-0.45-4.74-0.89-6.94-1.21
		c-1.86-0.27-3.13-1.11-3.86-2.94C98.69,19.77,97.58,17.63,96.45,15.2z"/>
	<path class="st0" d="M58.08,69.75c-0.26-0.09-1.07-0.27-1.75-0.67c-2.93-1.68-5.86-3.36-8.69-5.19c-1.25-0.81-2.21-0.75-3.48-0.1
		c-3.17,1.62-6.45,3.04-9.64,4.62c-1.36,0.67-2.8,0.78-3.69-0.3c-0.64-0.78-0.91-2.24-0.72-3.28c0.66-3.5,1.58-6.95,2.46-10.4
		c0.28-1.09,0.13-1.89-0.7-2.73c-2.54-2.6-4.94-5.34-7.5-7.91c-1.36-1.37-1.24-2.87-0.76-4.41c0.46-1.46,1.81-1.35,3.03-1.45
		c3.56-0.31,7.11-0.61,10.65-1.05c0.66-0.08,1.49-0.66,1.82-1.24c1.72-3.05,3.33-6.16,4.93-9.27c0.7-1.35,1.66-2.25,3.26-2.24
		c1.63,0.01,2.29,1.19,2.85,2.44c1.47,3.25,2.84,6.54,4.43,9.73c0.37,0.75,1.36,1.47,2.19,1.65c3.41,0.77,6.88,1.33,10.32,1.98
		c1.41,0.27,2.74,0.63,3.2,2.29c0.43,1.56-0.39,2.51-1.43,3.46c-2.58,2.37-5.1,4.82-7.7,7.17c-0.87,0.79-1.27,1.54-1.07,2.79
		c0.49,3.21,0.79,6.45,1.16,9.68c0.06,0.57,0.11,1.14,0.1,1.72C61.32,69.16,60.75,69.72,58.08,69.75z M60.79,44.56
		c-2.58-0.46-4.8-0.91-7.03-1.24c-1.79-0.27-3.02-1.08-3.72-2.83c-0.9-2.21-1.99-4.35-3.16-6.88c-1.22,2.32-2.34,4.29-3.3,6.34
		c-0.82,1.75-2.02,2.59-3.99,2.67c-2.39,0.09-4.76,0.47-7.51,0.77c1.8,1.9,3.28,3.64,4.95,5.17c1.5,1.39,1.87,2.88,1.34,4.81
		c-0.6,2.19-1.01,4.43-1.57,6.9c2.59-1.19,4.91-2.23,7.2-3.32c1.51-0.72,2.88-0.71,4.31,0.26c1.93,1.31,3.95,2.48,6.27,3.92
		c-0.28-2.57-0.47-4.77-0.78-6.95c-0.28-1.99,0.21-3.6,1.8-4.93C57.29,47.84,58.89,46.29,60.79,44.56z"/>
	<path class="st0" d="M161.29,70.1c-5.56-0.34-9.02-3.99-13.17-6.16c-1.35-0.71-2.32-0.8-3.66-0.09c-2.98,1.58-6.07,2.93-9.08,4.46
		c-1.24,0.62-2.62,1.06-3.49-0.06c-0.73-0.93-1.24-2.44-1.07-3.58c0.51-3.45,1.35-6.86,2.16-10.27c0.26-1.11,0.07-1.87-0.74-2.7
		c-2.54-2.59-4.97-5.3-7.5-7.91c-1-1.03-1.52-2.3-0.84-3.44c0.49-0.82,1.69-1.55,2.66-1.69c3.59-0.5,7.23-0.67,10.83-1.13
		c0.78-0.1,1.77-0.71,2.17-1.38c1.81-2.99,3.47-6.08,5.13-9.16c0.71-1.33,1.71-2.63,3.18-2.21c1.15,0.32,2.38,1.47,2.94,2.57
		c1.54,3.06,2.81,6.27,4.06,9.47c0.46,1.17,1.15,1.65,2.33,1.85c3.51,0.6,7.01,1.3,10.52,1.93c1.4,0.25,2.58,0.73,2.99,2.27
		c0.39,1.45-0.35,2.4-1.35,3.32c-2.63,2.41-5.17,4.92-7.83,7.3c-0.92,0.82-1.2,1.64-1.05,2.83c0.45,3.47,0.87,6.95,1.17,10.44
		C161.74,67.82,161.43,68.93,161.29,70.1z M147.52,33.58c-1.32,2.35-2.5,4.29-3.51,6.32c-0.89,1.77-2.13,2.67-4.18,2.73
		c-2.25,0.07-4.49,0.47-7.1,0.76c1.77,1.87,3.21,3.57,4.84,5.05c1.63,1.48,1.97,3.09,1.39,5.15c-0.6,2.11-0.97,4.27-1.5,6.68
		c2.45-1.13,4.65-2.01,6.7-3.14c1.81-0.99,3.32-0.81,4.96,0.35c1.75,1.23,3.63,2.28,5.78,3.62c-0.26-2.59-0.38-4.8-0.72-6.98
		c-0.32-2.03,0.26-3.59,1.82-4.91c1.68-1.42,3.28-2.95,5.17-4.66c-2.59-0.46-4.76-0.9-6.96-1.23c-1.86-0.27-3.15-1.08-3.82-2.96
		C149.61,38.23,148.62,36.16,147.52,33.58z"/>
	<path class="st0" d="M47.23,181.11c-2.93,0-5.86,0.02-8.79-0.01c-2.22-0.02-3.44-1.08-3.46-2.94c-0.02-1.85,1.17-2.97,3.41-2.99
		c5.92-0.05,11.84-0.05,17.77,0c2.31,0.02,3.42,1.05,3.42,2.95c0.01,1.98-1.16,2.97-3.57,2.98
		C53.09,181.12,50.16,181.11,47.23,181.11z"/>
</g>
</svg>
