<?xml version="1.0" encoding="utf-8"?>
<!-- Generator: Adobe Illustrator 27.0.0, SVG Export Plug-In . SVG Version: 6.00 Build 0)  -->
<svg version="1.1" id="Capa_1" xmlns="http://www.w3.org/2000/svg" xmlns:xlink="http://www.w3.org/1999/xlink" x="0px" y="0px"
	 viewBox="0 0 200 200" style="enable-background:new 0 0 200 200;" xml:space="preserve">
<style type="text/css">
	.st0{fill:#222221;}
	.st1{fill:#55565A;}
	.st2{fill:#4C428D;}
	.st3{fill:#26B1DC;}
	.st4{fill:#F5E134;}
</style>
<g>
	<path class="st0" d="M140.77,23.28c1,0,2,0,3,0c3.27,0.94,5.76,2.81,6.98,6.15c2.58-1.22,5.05-1.4,7.54-0.39
		c2.53,1.03,4.16,2.95,5.12,5.39c0.26-0.03,0.37-0.02,0.46-0.05c5.96-2.14,10.68,0.19,12.6,6.23c0.04,0.13,0.17,0.23,0.25,0.34
		c0,13.68,0,27.36,0,41.04c-0.88,1.72-1.69,3.47-2.64,5.14c-1.32,2.34-2.83,4.58-4.09,6.95c-0.53,1-0.9,2.23-0.92,3.36
		c-0.08,7.47-0.02,14.95-0.06,22.42c-0.01,1.05,0.27,1.67,1.19,2.28c2.88,1.93,4.28,4.71,3.83,8.19c-0.19,1.48-0.84,2.9-1.32,4.49
		c2.15,1.26,3.26,3.45,4.01,5.88c0,1,0,2,0,3c-0.95,3.27-2.8,5.78-6.1,6.95c2.12,4.83,0.84,10.11-5.03,12.77
		c0.02,0.14-0.01,0.3,0.05,0.43c2.97,5.99-1.91,13-9.15,12.87c-12.13-0.22-24.26-0.07-36.39-0.05c-1.91,0-3.63-0.45-5.25-1.44
		c-2.98-1.83-5.96-3.65-9-5.35c-0.91-0.51-2.05-0.86-3.08-0.87c-7.59-0.07-15.18-0.02-22.76-0.06c-0.94,0-1.5,0.23-2.05,1.08
		c-1.93,2.98-4.76,4.38-8.29,3.95c-1.48-0.18-2.91-0.84-4.45-1.31c-2,2.87-4.87,4.35-8.51,3.9c-3.63-0.46-6.01-2.67-7.42-6.06
		c-2.52,1.21-4.99,1.39-7.49,0.39c-2.54-1.02-4.17-2.96-5.14-5.39c-0.25,0.03-0.36,0.01-0.45,0.05c-6.34,3.03-13.04-2.17-12.91-9.09
		c0.22-12.08,0.08-24.16,0.04-36.24c-0.01-2.07,0.47-3.92,1.55-5.68c1.83-2.97,3.64-5.96,5.37-8.99c0.45-0.78,0.75-1.77,0.75-2.66
		c0.06-7.69,0.02-15.37,0.05-23.06c0-0.89-0.26-1.4-1.03-1.92c-3.11-2.06-4.52-5.02-3.95-8.73c0.2-1.34,0.85-2.61,1.3-3.94
		c-5.75-4.01-5.59-12.71,2.07-16.13c-1.13-2.4-1.35-4.87-0.34-7.37c1.02-2.55,2.95-4.18,5.46-5.19c-0.08-0.3-0.12-0.5-0.19-0.68
		c-2.06-5.57,0.45-10.56,6.17-12.32c0.18-0.05,0.33-0.18,0.5-0.28c13.68,0,27.36,0,41.04,0c1.68,0.85,3.39,1.64,5.02,2.57
		c2.47,1.4,4.85,2.95,7.33,4.32c0.79,0.44,1.76,0.76,2.66,0.76c7.73,0.06,15.45,0.02,23.18,0.06c0.93,0,1.39-0.35,1.88-1.09
		c1.95-2.96,4.76-4.36,8.29-3.94c1.48,0.18,2.9,0.84,4.48,1.32C136.16,25.15,138.33,24.02,140.77,23.28z M120.37,36.09
		c-0.66,0-1.2,0-1.74,0c-6.94,0-13.88-0.04-20.82,0.02c-2.43,0.02-4.6-0.55-6.65-1.86c-2.78-1.77-5.61-3.45-8.48-5.06
		c-0.83-0.46-1.86-0.77-2.8-0.77c-12.08-0.05-24.16-0.04-36.24-0.03c-2.98,0-4.92,1.5-4.97,3.81c-0.05,2.41,1.84,3.88,5,3.89
		c3.44,0.01,6.89-0.02,10.33,0.03c1.49,0.02,2.5,1.05,2.56,2.4c0.06,1.32-0.92,2.44-2.35,2.65c-0.44,0.06-0.9,0.04-1.35,0.04
		c-4.99,0-9.98-0.01-14.98,0.01c-2.5,0.01-4.32,1.64-4.34,3.8c-0.02,2.21,1.71,3.78,4.28,3.8c3.29,0.03,6.59,0.01,9.88,0.01
		c2.5,0,3.79,0.92,3.73,2.65c-0.05,1.67-1.24,2.46-3.73,2.46c-4.84,0-9.69-0.02-14.53,0.02c-0.88,0.01-1.81,0.13-2.61,0.47
		c-1.52,0.63-2.38,2.43-2.07,3.94c0.38,1.89,2.01,3.23,4.12,3.24c5.24,0.03,10.48,0.01,15.73,0.02c1.88,0,3.07,0.98,3.11,2.5
		c0.03,1.57-1.19,2.59-3.16,2.59c-4.29,0.01-8.59-0.01-12.88,0.01c-2.62,0.01-4.31,1.46-4.36,3.71c-0.05,2.27,1.7,3.89,4.32,3.99
		c0.4,0.02,0.8,0,1.2,0c8.34,0,16.67,0,25.01,0c0.95,0,1.9-0.05,2.84,0.03c1.97,0.17,2.98,2.17,1.95,3.86
		c-0.31,0.51-0.72,0.95-1.1,1.42c-1.99,2.44-4,4.86-5.97,7.31c-0.94,1.17-1.06,2.48-0.26,3.76c0.77,1.24,2.01,1.73,3.37,1.32
		c0.81-0.24,1.57-0.86,2.19-1.47c7.89-7.78,15.79-15.55,23.6-23.42c2.12-2.13,4.47-3.2,7.47-3.07c2.38,0.1,4.76,0.02,6.97,0.02
		c0.08-1.71-0.09-3.3,0.28-4.74c1.47-5.67,8.32-7.87,13.12-4.27c1.42,1.06,2.76,2.23,4.32,3.49
		C120.37,51.04,120.37,43.68,120.37,36.09z M79.67,163.85c0.75,0,1.34,0,1.93,0c7.09,0,14.18,0.01,21.27-0.01
		c1.95-0.01,3.73,0.45,5.4,1.48c2.93,1.8,5.86,3.61,8.87,5.28c0.95,0.53,2.13,0.9,3.21,0.91c11.98,0.06,23.96,0.04,35.94,0.04
		c0.45,0,0.9,0.02,1.35-0.03c2.06-0.2,3.73-1.9,3.75-3.82c0.02-1.99-1.51-3.6-3.68-3.82c-0.54-0.06-1.1-0.04-1.65-0.04
		c-3.34-0.01-6.69,0.02-10.03-0.03c-1.48-0.02-2.49-1.06-2.54-2.42c-0.05-1.33,0.93-2.43,2.37-2.63c0.44-0.06,0.9-0.04,1.35-0.04
		c4.99,0,9.98,0.02,14.98-0.01c2.5-0.01,4.31-1.67,4.32-3.82c0-2.21-1.72-3.76-4.3-3.78c-3.29-0.03-6.59,0-9.88-0.01
		c-2.43,0-3.67-0.85-3.71-2.52c-0.04-1.73,1.2-2.59,3.75-2.59c4.79,0,9.58,0.01,14.38-0.02c0.84-0.01,1.72-0.07,2.5-0.34
		c1.57-0.54,2.59-2.38,2.35-3.95c-0.3-1.9-1.94-3.35-4.01-3.37c-5.04-0.04-10.08-0.02-15.13-0.02c-2.56,0-3.82-0.82-3.84-2.52
		c-0.03-1.71,1.24-2.58,3.77-2.58c4.24,0,8.49,0.03,12.73-0.02c2.2-0.02,3.78-1.54,3.89-3.56c0.11-2.02-1.29-3.69-3.43-4.04
		c-0.59-0.09-1.19-0.09-1.79-0.09c-8.89,0-17.77,0-26.66,0c-0.5,0-1,0.02-1.5-0.03c-1.97-0.21-2.96-2.2-1.93-3.88
		c0.31-0.51,0.73-0.95,1.11-1.41c1.99-2.44,4-4.85,5.96-7.31c0.94-1.17,1.04-2.48,0.23-3.76c-0.78-1.23-2.02-1.7-3.38-1.3
		c-0.76,0.22-1.49,0.8-2.07,1.37c-7.82,7.71-15.67,15.39-23.38,23.21c-2.35,2.38-4.92,3.57-8.25,3.37
		c-2.22-0.13-4.45-0.03-6.49-0.03c-0.1,1.74,0.07,3.33-0.31,4.77c-1.5,5.67-8.35,7.83-13.13,4.21c-1.41-1.06-2.75-2.22-4.31-3.48
		C79.67,148.91,79.67,156.27,79.67,163.85z M163.91,120.33c0-0.76,0-1.35,0-1.95c0-7.09,0.01-14.17-0.01-21.26
		c-0.01-1.95,0.45-3.73,1.48-5.4c1.83-2.97,3.65-5.95,5.35-9c0.51-0.91,0.84-2.04,0.84-3.08c0.06-11.98,0.04-23.96,0.04-35.93
		c0-0.45,0.02-0.9-0.03-1.35c-0.2-2.07-1.89-3.72-3.81-3.75c-1.99-0.03-3.6,1.5-3.83,3.66c-0.06,0.54-0.04,1.1-0.04,1.65
		c-0.01,3.34,0.02,6.69-0.03,10.03c-0.02,1.49-1.06,2.5-2.41,2.55c-1.32,0.05-2.44-0.93-2.63-2.36c-0.06-0.44-0.04-0.9-0.04-1.35
		c-0.01-5.09,0.02-10.18-0.03-15.27c-0.02-2.28-1.73-4.01-3.8-4.02c-2.12-0.01-3.74,1.64-3.78,3.99c-0.05,3.44-0.01,6.89-0.02,10.33
		c0,0.54-0.01,1.11-0.14,1.63c-0.32,1.28-1.23,1.91-2.51,1.93c-1.24,0.01-2.24-0.95-2.4-2.23c-0.06-0.49-0.05-1-0.05-1.49
		c0-4.69,0-9.38,0-14.07c0-0.4,0.01-0.8-0.01-1.2c-0.15-2.37-1.72-4-3.83-3.99c-2.1,0.01-3.82,1.82-3.84,4.17
		c-0.03,5.04-0.01,10.08-0.01,15.12c0,0.4,0.02,0.8-0.01,1.2c-0.12,1.43-1.17,2.48-2.49,2.51c-1.37,0.03-2.49-1.06-2.59-2.56
		c-0.03-0.45-0.01-0.9-0.01-1.35c0-4.19,0.03-8.39-0.02-12.58c-0.02-2.21-1.52-3.8-3.54-3.91c-2.02-0.12-3.7,1.28-4.06,3.4
		c-0.08,0.49-0.08,0.99-0.09,1.49c-0.01,1.65,0,3.29,0,4.94c0,7.29,0,14.57,0,21.86c0,0.45,0.14,0.96-0.03,1.33
		c-0.39,0.85-0.77,1.99-1.48,2.32c-0.71,0.33-2.04,0.14-2.7-0.35c-2.84-2.12-5.52-4.44-8.27-6.67c-1.21-0.98-2.56-1.13-3.89-0.32
		c-1.25,0.76-1.73,2-1.32,3.36c0.23,0.76,0.81,1.48,1.38,2.06c7.57,7.68,15.08,15.41,22.79,22.95c2.71,2.65,4.1,5.51,3.79,9.28
		c-0.16,2.06-0.03,4.14-0.03,6.1c1.51,0,2.83-0.19,4.07,0.03c6.1,1.1,8.78,7.97,5.09,12.99c-1.1,1.5-2.33,2.92-3.64,4.55
		C148.98,120.33,156.34,120.33,163.91,120.33z M36.15,79.63c0,0.61,0,1.14,0,1.68c0,6.99-0.04,13.98,0.02,20.97
		c0.02,2.38-0.54,4.5-1.82,6.51c-1.72,2.69-3.38,5.42-4.92,8.21c-0.55,1-0.93,2.23-0.94,3.36c-0.07,11.98-0.04,23.96-0.04,35.95
		c0,0.45-0.02,0.9,0.03,1.35c0.23,2.06,1.97,3.7,3.88,3.67c1.94-0.03,3.5-1.51,3.74-3.6c0.06-0.49,0.04-1,0.04-1.5
		c0-3.3-0.07-6.59,0.05-9.88c0.03-0.84,0.49-1.91,1.12-2.39c0.57-0.43,1.9-0.54,2.43-0.15c0.73,0.52,1.4,1.64,1.43,2.52
		c0.15,3.94,0.06,7.89,0.07,11.83c0,1.55-0.05,3.1,0.04,4.64c0.12,2.05,1.93,3.68,3.87,3.63c1.97-0.05,3.52-1.58,3.67-3.64
		c0.04-0.5,0.03-1,0.03-1.5c0-3.2-0.01-6.39,0.01-9.59c0.01-1.99,1.03-3.2,2.61-3.17c1.54,0.02,2.46,1.16,2.5,3.09
		c0.01,0.4,0,0.8,0,1.2c0,4.64-0.02,9.29,0.02,13.93c0.01,0.83,0.1,1.72,0.38,2.49c0.59,1.6,2.41,2.55,3.99,2.25
		c1.89-0.35,3.27-2,3.29-4.09c0.04-4.29,0.01-8.59,0.02-12.88c0-1.15-0.04-2.3,0.02-3.44c0.08-1.5,1.22-2.58,2.6-2.54
		c1.34,0.04,2.37,1.08,2.47,2.52c0.03,0.4,0.01,0.8,0.01,1.2c0,4.19-0.02,8.39,0.01,12.58c0.02,2.38,1.54,4.04,3.66,4.1
		c2.1,0.06,3.76-1.52,3.99-3.84c0.05-0.49,0.03-1,0.03-1.5c0-8.89,0-17.77,0-26.66c0-0.5-0.02-1,0.04-1.5
		c0.23-1.88,2.18-2.84,3.81-1.87c0.47,0.28,0.88,0.66,1.3,1c2.51,2.05,5.01,4.12,7.54,6.15c1.18,0.95,2.51,0.98,3.76,0.16
		c1.22-0.8,1.64-2.07,1.23-3.41c-0.24-0.76-0.84-1.46-1.42-2.05c-7.86-7.96-15.71-15.92-23.63-23.82c-2.01-2-2.99-4.27-2.89-7.09
		c0.08-2.43,0.02-4.87,0.02-7.37c-1.68,0-3.28,0.29-4.73-0.05c-5.71-1.36-8.03-8.1-4.5-12.86c1.14-1.53,2.38-2.99,3.69-4.61
		C51.06,79.63,43.69,79.63,36.15,79.63z M101.32,69.32c-2.69,0-4.55-0.12-6.38,0.05c-0.91,0.08-1.98,0.47-2.62,1.1
		C84.9,77.72,77.54,85.04,70.2,92.38c-0.44,0.44-0.77,1.18-0.78,1.79c-0.07,3.64-0.11,7.29,0.02,10.93
		c0.03,0.89,0.49,1.97,1.12,2.61c7.26,7.42,14.58,14.78,21.92,22.12c0.43,0.43,1.19,0.75,1.8,0.76c3.59,0.07,7.19,0.11,10.78-0.02
		c0.94-0.03,2.08-0.5,2.75-1.15c7.39-7.22,14.72-14.5,22.01-21.82c0.49-0.49,0.82-1.36,0.84-2.07c0.09-3.34-0.01-6.69,0.06-10.03
		c0.03-1.51-0.43-2.63-1.51-3.71c-5.98-5.94-12.05-11.82-17.78-18C108.34,70.48,105.27,68.05,101.32,69.32z"/>
</g>
</svg>
