<?xml version="1.0" encoding="utf-8"?>
<!-- Generator: Adobe Illustrator 27.0.0, SVG Export Plug-In . SVG Version: 6.00 Build 0)  -->
<svg version="1.1" id="Capa_1" xmlns="http://www.w3.org/2000/svg" xmlns:xlink="http://www.w3.org/1999/xlink" x="0px" y="0px"
	 viewBox="0 0 200 200" style="enable-background:new 0 0 200 200;" xml:space="preserve">
<style type="text/css">
	.st0{fill:#222221;}
	.st1{fill:#55565A;}
	.st2{fill:#4C428D;}
	.st3{fill:#26B1DC;}
	.st4{fill:#F5E134;}
</style>
<g>
	<g>
		<path class="st1" d="M6.61,178.82c-0.25-0.26-0.37-0.61-0.37-1.06v-18.05h-6.67c-0.45,0-0.8-0.1-1.06-0.29
			c-0.26-0.19-0.38-0.48-0.38-0.85c0-0.8,0.48-1.2,1.45-1.2h16.27c0.45,0,0.8,0.1,1.05,0.31c0.25,0.2,0.37,0.5,0.37,0.89
			c0,0.35-0.12,0.63-0.37,0.83c-0.25,0.2-0.6,0.31-1.05,0.31H9.16v18.05c0,0.45-0.13,0.8-0.4,1.06c-0.27,0.26-0.64,0.38-1.11,0.38
			C7.2,179.21,6.85,179.08,6.61,178.82z"/>
		<path class="st1" d="M24.08,177.82c-0.76-0.72-1.14-1.71-1.14-2.98v-13.5c0-1.23,0.37-2.2,1.11-2.91
			c0.74-0.71,1.76-1.06,3.08-1.06h9.53c0.96,0,1.45,0.4,1.45,1.2c0,0.35-0.13,0.63-0.38,0.83c-0.26,0.2-0.61,0.31-1.06,0.31h-9.29
			c-0.47,0-0.85,0.15-1.12,0.46c-0.28,0.31-0.41,0.72-0.41,1.23v5.32h8.49c0.96,0,1.45,0.4,1.45,1.2c0,0.37-0.13,0.66-0.38,0.86
			c-0.26,0.2-0.61,0.31-1.06,0.31h-8.49v5.78c0,0.51,0.14,0.92,0.41,1.23c0.28,0.31,0.65,0.46,1.12,0.46h9.97
			c0.47,0,0.83,0.1,1.08,0.29c0.25,0.19,0.37,0.49,0.37,0.88c0,0.37-0.13,0.66-0.38,0.86c-0.26,0.2-0.61,0.31-1.06,0.31H27.22
			C25.88,178.9,24.84,178.54,24.08,177.82z"/>
		<path class="st1" d="M48.04,177.86c-1.64-0.9-2.91-2.18-3.8-3.85c-0.89-1.66-1.34-3.61-1.34-5.84c0-2.23,0.45-4.19,1.34-5.86
			c0.89-1.67,2.15-2.96,3.78-3.88c1.63-0.91,3.53-1.37,5.71-1.37c1.82,0,3.5,0.31,5.03,0.92c1.53,0.62,2.7,1.46,3.52,2.52
			c0.18,0.25,0.28,0.51,0.28,0.8c0,0.37-0.18,0.7-0.55,0.98c-0.21,0.14-0.44,0.22-0.71,0.22c-0.23,0-0.45-0.05-0.68-0.15
			c-0.23-0.1-0.41-0.24-0.55-0.4c-1.35-1.66-3.47-2.49-6.34-2.49c-2.44,0-4.37,0.77-5.78,2.32c-1.41,1.55-2.12,3.68-2.12,6.38
			c0,2.69,0.71,4.8,2.12,6.34c1.41,1.54,3.36,2.31,5.84,2.31c1.48,0,2.78-0.22,3.91-0.65c1.13-0.43,2.05-1.05,2.77-1.85
			c0.41-0.43,0.82-0.65,1.23-0.65c0.27,0,0.51,0.09,0.74,0.28c0.35,0.31,0.52,0.65,0.52,1.01c0,0.27-0.1,0.53-0.31,0.8
			c-0.84,1.07-2.05,1.91-3.63,2.52c-1.58,0.62-3.32,0.92-5.23,0.92C51.59,179.21,49.68,178.76,48.04,177.86z"/>
		<path class="st1" d="M69.43,178.82c-0.26-0.26-0.38-0.61-0.38-1.06v-19.25c0-0.45,0.13-0.8,0.38-1.06
			c0.26-0.26,0.61-0.39,1.06-0.39c0.45,0,0.81,0.13,1.08,0.39c0.27,0.26,0.4,0.61,0.4,1.06v8.15h12.67v-8.15
			c0-0.45,0.13-0.8,0.4-1.06c0.27-0.26,0.63-0.39,1.08-0.39c0.43,0,0.77,0.13,1.03,0.39s0.38,0.61,0.38,1.06v19.25
			c0,0.45-0.13,0.8-0.38,1.06c-0.26,0.26-0.6,0.38-1.03,0.38c-0.45,0-0.81-0.13-1.08-0.38c-0.27-0.26-0.4-0.61-0.4-1.06v-8.73H71.97
			v8.73c0,0.45-0.13,0.8-0.4,1.06c-0.27,0.26-0.63,0.38-1.08,0.38C70.04,179.21,69.68,179.08,69.43,178.82z"/>
		<path class="st1" d="M105.01,178.82c-0.26-0.26-0.38-0.61-0.38-1.06v-12.21c0-1.74,0.37-3.25,1.11-4.52
			c0.74-1.27,1.8-2.25,3.18-2.94c1.38-0.69,3.02-1.03,4.91-1.03c1.89,0,3.52,0.34,4.91,1.03c1.38,0.69,2.45,1.67,3.18,2.94
			c0.74,1.27,1.11,2.78,1.11,4.52v12.21c0,0.45-0.13,0.8-0.38,1.06c-0.26,0.26-0.61,0.38-1.06,0.38c-0.45,0-0.81-0.13-1.08-0.38
			c-0.27-0.26-0.4-0.61-0.4-1.06v-12.3c0-1.91-0.55-3.38-1.64-4.43c-1.1-1.05-2.64-1.57-4.63-1.57c-1.97,0-3.51,0.53-4.61,1.58
			c-1.11,1.06-1.66,2.53-1.66,4.41v12.3c0,0.45-0.13,0.8-0.4,1.06c-0.27,0.26-0.63,0.38-1.08,0.38
			C105.62,179.21,105.27,179.08,105.01,178.82z"/>
		<path class="st1" d="M133.49,177.82c-1.69-0.92-3-2.22-3.94-3.89c-0.93-1.67-1.4-3.6-1.4-5.8s0.47-4.13,1.4-5.8
			c0.93-1.67,2.25-2.97,3.94-3.89c1.69-0.92,3.62-1.38,5.8-1.38c2.17,0,4.11,0.46,5.8,1.38c1.69,0.92,3,2.22,3.94,3.89
			c0.93,1.67,1.4,3.6,1.4,5.8s-0.47,4.13-1.4,5.8c-0.93,1.67-2.25,2.97-3.94,3.89c-1.69,0.92-3.62,1.38-5.8,1.38
			C137.12,179.21,135.19,178.75,133.49,177.82z M143.58,175.78c1.24-0.69,2.21-1.69,2.91-3c0.7-1.31,1.05-2.86,1.05-4.64
			c0-1.83-0.36-3.39-1.08-4.69c-0.72-1.3-1.71-2.29-2.98-2.97c-1.27-0.68-2.73-1.02-4.37-1.02c-1.58,0-2.98,0.35-4.2,1.05
			c-1.22,0.7-2.16,1.7-2.83,3c-0.67,1.3-1,2.84-1,4.63c0,1.78,0.34,3.33,1.03,4.64c0.69,1.31,1.65,2.31,2.89,3s2.67,1.03,4.29,1.03
			C140.91,176.81,142.34,176.47,143.58,175.78z"/>
		<path class="st1" d="M161.87,177.73c-0.8-0.98-1.54-2.58-2.21-4.8l-4.37-14.24c-0.08-0.33-0.12-0.53-0.12-0.62
			c0-0.68,0.46-1.01,1.38-1.01c0.45,0,0.79,0.09,1.03,0.28c0.24,0.18,0.43,0.51,0.57,0.98l4.31,14.36c0.47,1.52,0.9,2.59,1.29,3.21
			c0.39,0.63,0.82,0.94,1.29,0.94c0.47,0,0.91-0.32,1.31-0.95c0.4-0.64,0.83-1.7,1.28-3.2l4.34-14.39c0.14-0.45,0.33-0.77,0.57-0.95
			c0.23-0.18,0.58-0.28,1.03-0.28c0.9,0,1.35,0.34,1.35,1.01c0,0.18-0.03,0.39-0.09,0.62l-4.4,14.24c-0.7,2.28-1.46,3.89-2.28,4.84
			c-0.82,0.95-1.86,1.43-3.11,1.43C163.72,179.21,162.67,178.72,161.87,177.73z"/>
		<path class="st1" d="M184.95,177.82c-1.69-0.92-3-2.22-3.94-3.89c-0.93-1.67-1.4-3.6-1.4-5.8s0.47-4.13,1.4-5.8
			c0.93-1.67,2.25-2.97,3.94-3.89c1.69-0.92,3.62-1.38,5.8-1.38c2.17,0,4.11,0.46,5.8,1.38c1.69,0.92,3,2.22,3.94,3.89
			c0.93,1.67,1.4,3.6,1.4,5.8s-0.47,4.13-1.4,5.8c-0.93,1.67-2.25,2.97-3.94,3.89c-1.69,0.92-3.62,1.38-5.8,1.38
			C188.57,179.21,186.64,178.75,184.95,177.82z M195.04,175.78c1.24-0.69,2.21-1.69,2.91-3c0.7-1.31,1.05-2.86,1.05-4.64
			c0-1.83-0.36-3.39-1.08-4.69c-0.72-1.3-1.71-2.29-2.98-2.97c-1.27-0.68-2.73-1.02-4.37-1.02c-1.58,0-2.98,0.35-4.2,1.05
			c-1.22,0.7-2.16,1.7-2.83,3c-0.67,1.3-1,2.84-1,4.63c0,1.78,0.34,3.33,1.03,4.64c0.69,1.31,1.65,2.31,2.89,3s2.67,1.03,4.29,1.03
			C192.37,176.81,193.8,176.47,195.04,175.78z"/>
	</g>
	<g>
		<path class="st1" d="M18.59,191.87v7.01h5.29v0.99h-7.07v-7.33c0-0.15,0.01-0.28,0.02-0.37c0.01-0.1,0.06-0.17,0.16-0.23
			c0.09-0.05,0.24-0.08,0.44-0.08H18.59z"/>
		<path class="st1" d="M25.38,199.88c0-1.23,0-2.46,0-3.68c0-1.22,0-2.45,0-3.66c0-0.15,0.01-0.27,0.03-0.37
			c0.02-0.09,0.07-0.17,0.16-0.22c0.09-0.05,0.23-0.08,0.43-0.08h1.18v8.01H25.38z"/>
		<path class="st1" d="M38.5,195.93c0,0.93-0.1,1.66-0.3,2.19c-0.2,0.53-0.5,0.93-0.89,1.18c-0.39,0.26-0.87,0.42-1.45,0.5
			c-0.58,0.08-1.25,0.11-2,0.11c-0.39,0-0.79,0-1.18-0.01c-0.39-0.01-0.78-0.01-1.16-0.01c-0.38,0-0.72,0-1.03-0.01
			c-0.31-0.01-0.57-0.01-0.77-0.01v-6.89c0-0.37,0.06-0.64,0.17-0.82c0.12-0.17,0.39-0.27,0.82-0.3c0.21-0.01,0.47-0.02,0.79-0.02
			c0.32,0,0.66,0,1.01-0.01c0.35-0.01,0.7-0.01,1.03-0.01c0.33,0,0.62,0.01,0.88,0.02c0.7,0.02,1.3,0.08,1.81,0.17
			c0.51,0.09,0.94,0.27,1.28,0.54c0.34,0.27,0.59,0.68,0.76,1.21C38.42,194.3,38.5,195.02,38.5,195.93z M31.51,198.92
			c0.08,0,0.22,0,0.42,0.01c0.2,0.01,0.41,0.01,0.64,0.01c0.23,0,0.46,0,0.68,0.01c0.22,0.01,0.39,0.01,0.52,0.01
			c0.54,0,1-0.04,1.37-0.12c0.37-0.08,0.66-0.23,0.9-0.44c0.23-0.21,0.4-0.51,0.5-0.91c0.1-0.4,0.15-0.91,0.15-1.54
			c0-0.87-0.09-1.53-0.27-1.98c-0.18-0.45-0.48-0.76-0.89-0.92c-0.41-0.16-0.98-0.24-1.71-0.24c-0.15,0-0.36,0-0.64,0
			s-0.54,0-0.81,0.01c-0.27,0.01-0.48,0.02-0.64,0.04c-0.07,0.05-0.12,0.11-0.16,0.18c-0.03,0.08-0.05,0.22-0.05,0.43V198.92z"/>
		<path class="st1" d="M40.54,199.88v-7.35c0-0.25,0.04-0.43,0.11-0.52c0.08-0.09,0.24-0.14,0.5-0.14h7.24v0.99h-6.06v2.35h5.54
			v0.99h-5.54v2.68h6.06v0.99H40.54z"/>
		<path class="st1" d="M55.25,196.76c-0.59,0-1.13,0-1.62,0s-1.02,0.01-1.58,0.02v3.1h-1.79v-7.05c0-0.34,0.07-0.58,0.22-0.72
			c0.14-0.14,0.4-0.22,0.77-0.23c0.17-0.01,0.41-0.02,0.71-0.02c0.3,0,0.64,0,1.03-0.01c0.38-0.01,0.77-0.01,1.17-0.01
			c0.4,0,0.79,0,1.16,0c0.37,0,0.7,0.01,0.98,0.02c0.28,0.01,0.5,0.02,0.65,0.03c0.61,0.06,1.07,0.26,1.36,0.59
			c0.29,0.34,0.44,0.85,0.44,1.53c0,0.57-0.07,1.01-0.2,1.31c-0.13,0.31-0.33,0.54-0.6,0.7c-0.05,0.03-0.12,0.06-0.22,0.09
			c-0.1,0.02-0.2,0.03-0.3,0.03v0.05c0.06,0,0.12,0,0.19,0c0.07,0,0.13,0,0.17,0c0.44,0.08,0.71,0.26,0.8,0.52
			c0.09,0.27,0.14,0.54,0.14,0.82v1.84c0,0.15,0.01,0.27,0.04,0.35c0.03,0.08,0.05,0.13,0.06,0.14h-1.31c-0.2,0-0.35-0.03-0.47-0.1
			s-0.17-0.22-0.17-0.48v-1.64c0-0.36-0.08-0.6-0.23-0.72c-0.16-0.12-0.43-0.18-0.83-0.18H55.25z M52.05,195.84
			c0.15,0,0.39,0,0.7,0.01c0.32,0.01,0.67,0.01,1.05,0.02c0.38,0.01,0.74,0.01,1.06,0.01c0.32,0,0.56,0,0.7,0
			c0.36,0,0.68-0.11,0.95-0.33c0.27-0.22,0.41-0.63,0.41-1.24c0-0.42-0.08-0.75-0.23-0.99c-0.16-0.24-0.41-0.38-0.76-0.42
			c-0.21-0.03-0.48-0.05-0.82-0.06c-0.34-0.01-0.68-0.01-1.04-0.01c-0.36,0-0.69,0-0.98,0.01c-0.3,0.01-0.52,0.02-0.67,0.03
			c-0.03,0-0.1,0.02-0.21,0.05c-0.1,0.03-0.16,0.14-0.16,0.33V195.84z"/>
		<path class="st1" d="M65.62,199.88v-7.35c0-0.25,0.04-0.43,0.11-0.52c0.08-0.09,0.24-0.14,0.5-0.14h7.24v0.99h-6.06v2.35h5.54
			v0.99h-5.54v2.68h6.06v0.99H65.62z"/>
		<path class="st1" d="M75.42,199.88v-7.21c0-0.35,0.03-0.57,0.1-0.66s0.26-0.14,0.56-0.14h1.64l4.77,6.18l0.05,0.14v-6.32h1.36
			c-0.02,0.01-0.04,0.06-0.04,0.16c-0.01,0.09-0.01,0.19-0.01,0.3c0,0.1,0,0.2,0,0.3v6.54c0,0.33-0.05,0.53-0.16,0.6
			c-0.1,0.08-0.31,0.11-0.61,0.11h-1.5l-4.82-6.25l-0.03-0.17v6.42H75.42z"/>
		<path class="st1" d="M90.16,191.87h8.42v0.99h-3.31v6.34c0,0.26-0.04,0.43-0.11,0.53c-0.08,0.1-0.25,0.15-0.51,0.15h-1.17v-7.01
			h-3.32V191.87z"/>
		<path class="st1" d="M100.28,199.88v-7.35c0-0.25,0.04-0.43,0.11-0.52c0.08-0.09,0.24-0.14,0.5-0.14h7.24v0.99h-6.06v2.35h5.54
			v0.99h-5.54v2.68h6.06v0.99H100.28z"/>
		<path class="st1" d="M109.47,195.88c0-0.82,0.09-1.5,0.26-2.03c0.17-0.53,0.46-0.94,0.84-1.24c0.39-0.3,0.9-0.51,1.53-0.64
			s1.41-0.18,2.32-0.18c0.44,0,0.86,0.02,1.26,0.04c0.4,0.03,0.82,0.08,1.24,0.15c0.38,0.06,0.64,0.15,0.76,0.27
			c0.12,0.12,0.18,0.29,0.18,0.5v0.57c-0.27-0.12-0.6-0.21-1.01-0.29c-0.41-0.08-0.82-0.13-1.24-0.17c-0.42-0.04-0.8-0.06-1.14-0.06
			c-0.77,0-1.38,0.09-1.85,0.26c-0.47,0.17-0.81,0.48-1.02,0.92c-0.21,0.44-0.31,1.07-0.31,1.9s0.1,1.46,0.3,1.91
			c0.2,0.45,0.55,0.76,1.03,0.93c0.48,0.17,1.14,0.26,1.98,0.26c0.32,0,0.68-0.02,1.06-0.06c0.38-0.04,0.77-0.1,1.15-0.17
			c0.38-0.07,0.74-0.15,1.06-0.24v0.54c0,0.19-0.06,0.34-0.18,0.47c-0.12,0.13-0.39,0.22-0.79,0.28c-0.42,0.08-0.84,0.13-1.25,0.16
			c-0.42,0.02-0.84,0.03-1.27,0.03c-0.94,0-1.73-0.06-2.36-0.17c-0.63-0.12-1.13-0.32-1.51-0.63c-0.37-0.3-0.64-0.72-0.8-1.25
			S109.47,196.71,109.47,195.88z"/>
		<path class="st1" d="M119.72,199.88v-7.21c0-0.35,0.03-0.57,0.1-0.66s0.26-0.14,0.56-0.14h1.64l4.77,6.18l0.05,0.14v-6.32h1.36
			c-0.02,0.01-0.04,0.06-0.04,0.16c-0.01,0.09-0.01,0.19-0.01,0.3c0,0.1,0,0.2,0,0.3v6.54c0,0.33-0.05,0.53-0.16,0.6
			c-0.1,0.08-0.31,0.11-0.61,0.11h-1.5l-4.82-6.25l-0.03-0.17v6.42H119.72z"/>
		<path class="st1" d="M134.81,200c-0.75,0-1.42-0.05-1.99-0.17c-0.57-0.11-1.06-0.31-1.44-0.6c-0.39-0.29-0.68-0.7-0.87-1.24
			c-0.19-0.54-0.29-1.25-0.29-2.13c0-0.88,0.1-1.59,0.31-2.14c0.21-0.54,0.51-0.96,0.91-1.25c0.4-0.29,0.89-0.48,1.48-0.58
			c0.59-0.1,1.26-0.15,2.01-0.15c0.75,0,1.42,0.06,1.98,0.17c0.57,0.11,1.05,0.31,1.44,0.6c0.39,0.29,0.68,0.7,0.87,1.24
			c0.19,0.54,0.29,1.24,0.29,2.11c0,0.89-0.1,1.61-0.31,2.15c-0.21,0.54-0.51,0.95-0.91,1.24c-0.4,0.29-0.89,0.49-1.47,0.59
			C136.23,199.95,135.57,200,134.81,200z M134.85,199.03c0.46,0,0.87-0.04,1.23-0.12c0.35-0.08,0.65-0.23,0.89-0.45
			c0.24-0.22,0.41-0.54,0.53-0.96c0.12-0.42,0.17-0.96,0.17-1.64c0-0.66-0.06-1.2-0.17-1.62c-0.12-0.42-0.29-0.74-0.53-0.96
			c-0.24-0.22-0.53-0.37-0.89-0.45c-0.35-0.08-0.76-0.12-1.23-0.12c-0.46,0-0.87,0.04-1.22,0.12c-0.35,0.08-0.64,0.23-0.87,0.45
			c-0.23,0.22-0.41,0.54-0.52,0.96c-0.12,0.42-0.17,0.96-0.17,1.62c0,0.67,0.06,1.22,0.17,1.64c0.12,0.42,0.29,0.74,0.52,0.96
			c0.23,0.22,0.52,0.37,0.87,0.45C133.98,198.99,134.38,199.03,134.85,199.03z"/>
		<path class="st1" d="M143.32,191.87v7.01h5.29v0.99h-7.07v-7.33c0-0.15,0.01-0.28,0.02-0.37c0.01-0.1,0.06-0.17,0.16-0.23
			c0.09-0.05,0.24-0.08,0.44-0.08H143.32z"/>
		<path class="st1" d="M154.1,200c-0.75,0-1.42-0.05-1.99-0.17c-0.57-0.11-1.06-0.31-1.44-0.6c-0.39-0.29-0.68-0.7-0.87-1.24
			c-0.19-0.54-0.29-1.25-0.29-2.13c0-0.88,0.1-1.59,0.31-2.14c0.21-0.54,0.51-0.96,0.91-1.25c0.4-0.29,0.89-0.48,1.48-0.58
			c0.59-0.1,1.26-0.15,2.01-0.15c0.75,0,1.42,0.06,1.98,0.17c0.57,0.11,1.05,0.31,1.44,0.6c0.39,0.29,0.68,0.7,0.87,1.24
			c0.19,0.54,0.29,1.24,0.29,2.11c0,0.89-0.1,1.61-0.31,2.15c-0.21,0.54-0.51,0.95-0.91,1.24c-0.4,0.29-0.89,0.49-1.47,0.59
			C155.52,199.95,154.85,200,154.1,200z M154.13,199.03c0.46,0,0.87-0.04,1.23-0.12c0.35-0.08,0.65-0.23,0.89-0.45
			c0.24-0.22,0.41-0.54,0.53-0.96c0.12-0.42,0.17-0.96,0.17-1.64c0-0.66-0.06-1.2-0.17-1.62c-0.12-0.42-0.29-0.74-0.53-0.96
			c-0.24-0.22-0.53-0.37-0.89-0.45c-0.35-0.08-0.76-0.12-1.23-0.12c-0.46,0-0.87,0.04-1.22,0.12c-0.35,0.08-0.64,0.23-0.87,0.45
			c-0.23,0.22-0.41,0.54-0.52,0.96c-0.12,0.42-0.17,0.96-0.17,1.62c0,0.67,0.06,1.22,0.17,1.64c0.12,0.42,0.29,0.74,0.52,0.96
			c0.23,0.22,0.52,0.37,0.87,0.45S153.67,199.03,154.13,199.03z"/>
		<path class="st1" d="M164.75,200c-0.84,0-1.54-0.06-2.12-0.19c-0.57-0.13-1.04-0.34-1.39-0.65c-0.35-0.31-0.61-0.72-0.77-1.25
			s-0.24-1.2-0.24-2.01c0-0.87,0.1-1.58,0.31-2.12c0.21-0.54,0.52-0.96,0.92-1.25s0.89-0.49,1.46-0.59c0.57-0.1,1.22-0.16,1.95-0.16
			c0.66,0,1.26,0.01,1.8,0.04c0.54,0.03,0.98,0.08,1.33,0.17c0.26,0.05,0.44,0.11,0.57,0.2c0.12,0.09,0.2,0.18,0.23,0.29
			c0.03,0.1,0.04,0.21,0.04,0.31v0.45c-0.08-0.08-0.23-0.14-0.46-0.19c-0.23-0.05-0.49-0.09-0.78-0.13c-0.3-0.04-0.6-0.07-0.91-0.1
			s-0.61-0.04-0.89-0.05c-0.28-0.01-0.5-0.02-0.66-0.02c-0.77,0-1.37,0.09-1.82,0.27c-0.45,0.18-0.77,0.5-0.96,0.95
			c-0.19,0.45-0.29,1.1-0.29,1.93c0,0.8,0.09,1.43,0.26,1.88c0.17,0.45,0.46,0.77,0.87,0.96c0.41,0.19,0.96,0.28,1.65,0.28
			c0.63,0,1.13-0.06,1.5-0.17c0.37-0.12,0.64-0.33,0.81-0.65c0.17-0.32,0.26-0.76,0.27-1.33c0.01-0.13,0.01-0.24,0.01-0.34
			c-0.01-0.1-0.01-0.18-0.01-0.23h-3.19c0-0.26,0.01-0.46,0.04-0.6c0.03-0.14,0.11-0.25,0.23-0.3c0.13-0.06,0.32-0.09,0.59-0.09
			h4.06v1.55c0,0.6-0.07,1.11-0.22,1.51c-0.15,0.4-0.38,0.72-0.71,0.97c-0.33,0.24-0.78,0.42-1.36,0.53
			C166.31,199.95,165.6,200,164.75,200z"/>
		<path class="st1" d="M171.1,199.88c0-1.23,0-2.46,0-3.68c0-1.22,0-2.45,0-3.66c0-0.15,0.01-0.27,0.03-0.37
			c0.02-0.09,0.07-0.17,0.16-0.22c0.09-0.05,0.23-0.08,0.43-0.08h1.18v8.01H171.1z M171.35,190.81l1.83-1.74l0.8,0.52l-1.91,1.22
			H171.35z"/>
		<path class="st1" d="M174.43,199.88l2.44-6.77c0.16-0.42,0.38-0.74,0.66-0.97c0.28-0.23,0.73-0.34,1.36-0.34
			c0.56,0,0.98,0.1,1.28,0.31c0.3,0.21,0.52,0.54,0.69,0.99l2.49,6.77h-1.93l-0.75-2.09h-4.13l-0.73,2.09H174.43z M176.81,197.04
			h3.52l-1.1-3.18c-0.05-0.15-0.11-0.28-0.18-0.4c-0.08-0.12-0.23-0.17-0.48-0.17c-0.26,0-0.42,0.06-0.5,0.18
			c-0.08,0.12-0.15,0.25-0.19,0.39L176.81,197.04z"/>
	</g>
	<g>
		<g>
			<polygon class="st2" points="162.78,86.32 147.41,86.32 104.77,128.95 104.77,144.33 			"/>
		</g>
		<g>
			<polygon class="st3" points="94.76,60.31 72.84,38.38 95.85,15.38 95.85,0 65.15,30.7 58.83,37.02 37.84,58.01 53.21,58.01 
				66.51,44.7 88.44,66.63 			"/>
			
				<rect x="115.38" y="76.04" transform="matrix(0.7071 -0.7071 0.7071 0.7071 -29.75 111.6066)" class="st3" width="8.94" height="31.35"/>
		</g>
		<g>
			<path class="st4" d="M88.49,77.73l-5.57-5.57l5.37-5.37H31.4c-2.25,0-4.27,1.34-5.13,3.42c-0.86,2.08-0.39,4.45,1.2,6.05
				l68.14,68.14v-15.48L44.42,77.73L88.49,77.73z"/>
			<path class="st4" d="M172.68,68.26L104.55,0.12V15.6l51.19,51.19h-43.87l5.37,5.37l-5.57,5.57l57.09,0c1.51,0,2.91-0.6,3.93-1.62
				c0.5-0.5,0.92-1.11,1.2-1.8C174.75,72.23,174.28,69.85,172.68,68.26z"/>
		</g>
		
			<rect x="94.76" y="66.71" transform="matrix(0.7073 -0.7069 0.7069 0.7073 -21.6768 91.9491)" class="st3" width="10.87" height="10.87"/>
	</g>
</g>
</svg>
