<?xml version="1.0" encoding="utf-8"?><!-- Generator: Adobe Illustrator 27.0.0, SVG Export Plug-In . SVG Version: 6.00 Build 0)  --><svg xmlns="http://www.w3.org/2000/svg" xmlns:xlink="http://www.w3.org/1999/xlink" version="1.1" id="Capa_1" x="0px" y="0px" viewBox="0 0 200 200" style="enable-background:new 0 0 200 200;" xml:space="preserve">
<style type="text/css">
	.st0{fill:#3cb9df;}
	.st1{fill:#55565A;}
	.st2{fill:#4C428D;}
	.st3{fill:#26B1DC;}
	.st4{fill:#F5E134;}
</style>
<g>
	<path class="st0" d="M149.75,88.9c-0.95,0.09-1.9,0.14-2.86,0.15c-10.47,0-20.24-5.28-25.98-14.04v47.81   c0,19.52-15.82,35.34-35.34,35.34c-19.52,0-35.34-15.82-35.34-35.34c0-19.52,15.82-35.34,35.34-35.34l0,0   c0.74,0,1.46,0.07,2.18,0.11v17.41c-0.73-0.09-1.44-0.22-2.18-0.22c-9.96,0-18.03,8.07-18.03,18.03s8.07,18.03,18.03,18.03   c9.96,0,18.76-7.85,18.76-17.81l0.17-81.2h16.66c1.57,14.94,13.62,26.61,28.6,27.7V88.9"/>
	<g id="XMLID_00000151525193975877125530000017888399595507205763_">
		<path class="st0" d="M100,200C44.86,200,0,155.14,0,100C0,44.86,44.86,0,100,0c55.14,0,100,44.86,100,100    C200,155.14,155.14,200,100,200z M100,7.58C49.04,7.58,7.58,49.04,7.58,100c0,50.96,41.46,92.42,92.42,92.42    c50.96,0,92.42-41.46,92.42-92.42C192.42,49.04,150.96,7.58,100,7.58z"/>
	</g>
</g>
</svg>