<?xml version="1.0" encoding="utf-8"?><!-- Generator: Adobe Illustrator 27.0.0, SVG Export Plug-In . SVG Version: 6.00 Build 0)  --><svg xmlns="http://www.w3.org/2000/svg" xmlns:xlink="http://www.w3.org/1999/xlink" version="1.1" id="Capa_1" x="0px" y="0px" viewBox="0 0 200 200" style="enable-background:new 0 0 200 200;" xml:space="preserve">
<style type="text/css">
	.st0{fill:#3cb9df;}
	.st1{fill:#55565A;}
	.st2{fill:#4C428D;}
	.st3{fill:#26B1DC;}
	.st4{fill:#F5E134;}
</style>
<g>
	<path class="st0" d="M168.66,65.28c-1.65-6.21-6.5-11.09-12.67-12.75C144.81,49.52,100,49.52,100,49.52s-44.81,0-55.99,3.01   c-6.17,1.66-11.02,6.55-12.67,12.75C28.35,76.53,28.35,100,28.35,100s0,23.47,2.99,34.72c1.65,6.21,6.5,11.09,12.67,12.75   c11.17,3.01,55.99,3.01,55.99,3.01s44.81,0,55.99-3.01c6.17-1.66,11.02-6.55,12.67-12.75c2.99-11.25,2.99-34.72,2.99-34.72   S171.65,76.53,168.66,65.28z M85.34,121.31V78.69L122.8,100L85.34,121.31z"/>
	<g id="XMLID_00000142882774056608430790000001800133806802815421_">
		<path class="st0" d="M100,200C44.86,200,0,155.14,0,100C0,44.86,44.86,0,100,0c55.14,0,100,44.86,100,100    C200,155.14,155.14,200,100,200z M100,7.58C49.04,7.58,7.58,49.04,7.58,100c0,50.96,41.46,92.42,92.42,92.42    c50.96,0,92.42-41.46,92.42-92.42C192.42,49.04,150.96,7.58,100,7.58z"/>
	</g>
</g>
</svg>